<svg xmlns="http://www.w3.org/2000/svg" viewBox="0 0 256 256" width="256" height="256"><path d="M 107 139 A 8 8 0 0 1 117 149 L 117 213 A 8 8 0 0 1 107 224 L 32 224 A 8 8 0 0 1 24 213 L 24 43 A 8 8 0 0 1 32 32 L 107 32 A 8 8 0 0 1 117 43 L 117 107 A 8 8 0 0 1 107 117 L 32 117 A 24 24 0 0 0 8 141 L 8 213 A 24 24 0 0 0 32 237 L 107 237 A 8 8 0 0 1 117 248 L 117 255 A 8 8 0 0 1 107 255 L 32 255 A 8 8 0 0 1 24 250 L 24 141 A 8 8 0 0 1 32 133 L 107 133 A 8 8 0 0 1 117 123 L 117 59 A 8 8 0 0 1 128 51 L 235 128 A 8 8 0 0 1 235 139 L 128 216 A 8 8 0 0 1 117 208 L 117 139 Z" fill="#000000" stroke="none" stroke-width="0" opacity="1.000"/></svg>