<svg xmlns="http://www.w3.org/2000/svg" viewBox="0 0 256 256" width="256" height="256"><path d="M 32 48 L 32 208 C 32 219 40 227 51 227 L 128 227 L 128 255 L 51 255 A 19 19 0 0 1 32 237 L 32 48 Z M 227 237 A 19 19 0 0 1 208 255 L 131 255 L 131 227 L 208 227 A 19 19 0 0 1 227 237 Z M 227 48 L 227 208 C 227 219 219 227 208 227 L 131 227 L 131 48 L 227 48 Z M 128 192 L 128 160 L 51 160 A 19 19 0 0 1 32 141 L 32 112 A 19 19 0 0 1 51 93 L 128 93 L 128 64 L 51 64 A 19 19 0 0 1 32 45 L 32 16 A 19 19 0 0 1 51 0 L 128 0 L 128 32 L 208 32 A 19 19 0 0 1 227 45 L 227 16 A 19 19 0 0 1 208 0 L 131 0 A 19 19 0 0 1 128 19 L 128 32 L 128 64 L 128 93 L 208 93 A 19 19 0 0 1 227 112 L 227 141 A 19 19 0 0 1 208 160 L 128 160 L 128 192 Z M 128 128 L 128 107 L 51 107 A 19 19 0 0 1 32 88 L 32 59 A 19 19 0 0 1 51 40 L 128 40 L 128 128 Z M 128 128 L 128 155 L 51 155 A 19 19 0 0 1 32 136 L 32 107 A 19 19 0 0 1 51 88 L 128 88 L 128 128 Z M 128 128 L 128 107 L 208 107 A 19 19 0 0 1 227 128 L 227 160 A 19 19 0 0 1 208 181 L 128 181 L 128 128 Z M 128 128 L 128 155 L 208 155 A 19 19 0 0 1 227 136 L 227 107 A 19 19 0 0 1 208 88 L 128 88 L 128 128 Z" fill="#000000" stroke="none" stroke-width="0" opacity="1.000"/></svg>