<svg xmlns="http://www.w3.org/2000/svg" viewBox="0 0 256 256" width="256" height="256"><path d="M 139 48 C 170 48 192 70 192 99 L 192 117 A 11 11 0 0 1 181 128 L 171 128 L 171 149 A 11 11 0 0 1 160 160 L 96 160 A 11 11 0 0 1 85 149 L 85 128 L 75 128 A 11 11 0 0 1 64 117 L 64 99 C 64 70 86 48 117 48 L 139 48 Z M 139 69 L 117 69 C 93 69 75 87 75 111 L 75 128 L 181 128 L 181 111 C 181 87 163 69 139 69 Z M 128 181 A 11 11 0 0 1 117 171 L 117 149 A 11 11 0 0 1 128 139 L 139 139 A 11 11 0 0 1 149 149 L 149 171 A 11 11 0 0 1 139 181 L 128 181 Z" fill="#808080" stroke="none" stroke-width="0" opacity="1.000"/></svg>