<svg xmlns="http://www.w3.org/2000/svg" viewBox="0 0 256 256" width="256" height="256"><path d="M 203 43 L 181 43 A 11 11 0 0 0 171 53 L 171 96 L 149 96 L 149 53 A 11 11 0 0 0 139 43 L 117 43 L 117 213 L 139 213 A 11 11 0 0 0 149 203 L 149 160 L 171 160 L 171 203 A 11 11 0 0 0 181 213 L 203 213 L 203 43 Z M 160 149 L 96 149 L 96 107 L 160 107 L 160 149 Z M 160 181 L 96 181 L 96 139 L 160 139 L 160 181 Z M 160 128 L 96 128 L 96 85 L 160 85 L 160 128 Z" fill="#000000" stroke="none" stroke-width="0" opacity="1.000"/></svg>