<svg xmlns="http://www.w3.org/2000/svg" viewBox="0 0 256 256" width="256" height="256"><path d="M 203 43 L 53 43 C 47 43 43 47 43 53 L 43 203 C 43 209 47 213 53 213 L 203 213 C 209 213 213 209 213 203 L 213 53 C 213 47 209 43 203 43 Z M 181 160 L 139 117 L 139 160 L 117 160 L 117 117 L 75 160 L 117 160 L 117 107 L 139 107 L 139 160 L 181 160 Z M 181 139 L 139 139 L 139 117 L 117 117 L 117 139 L 75 139 L 117 181 L 139 181 L 139 139 L 181 139 Z" fill="#1E90FF" stroke="none" stroke-width="0" opacity="1.000"/></svg>