<svg xmlns="http://www.w3.org/2000/svg" viewBox="0 0 256 256" width="256" height="256"><path d="M 197 34 L 180 17 A 11 11 0 0 0 166 17 L 128 55 L 90 17 A 11 11 0 0 0 76 17 L 59 34 A 11 11 0 0 0 59 50 L 128 119 L 197 50 A 11 11 0 0 0 197 34 Z M 128 139 L 59 208 A 11 11 0 0 0 59 224 L 128 193 L 197 224 A 11 11 0 0 0 207 224 L 236 200 A 11 11 0 0 0 236 184 L 197 145 A 11 11 0 0 0 180 145 L 128 183 L 76 145 A 11 11 0 0 0 59 145 L 34 169 A 11 11 0 0 0 34 184 L 59 208 L 128 139 Z" fill="#808080" stroke="none" stroke-width="0" opacity="1.000"/></svg>