<svg xmlns="http://www.w3.org/2000/svg" viewBox="0 0 256 256" width="256" height="256"><path d="M 139 48 C 170 48 192 70 192 99 L 192 117 A 11 11 0 0 1 181 128 L 160 128 L 160 149 A 11 11 0 0 1 149 160 L 128 160 L 128 181 A 11 11 0 0 1 117 192 L 96 192 A 11 11 0 0 1 85 181 L 85 160 L 64 160 A 11 11 0 0 1 53 149 L 53 128 L 32 128 A 11 11 0 0 1 21 117 L 21 99 C 21 70 43 48 75 48 L 96 48 L 96 32 L 75 32 A 11 11 0 0 1 64 21 L 85 21 A 11 11 0 0 1 96 32 L 96 48 L 117 48 Z M 128 117 L 128 96 L 149 96 A 11 11 0 0 1 160 107 L 160 128 L 181 128 A 11 11 0 0 1 192 117 L 192 96 L 171 96 A 11 11 0 0 1 160 85 L 160 64 L 149 64 A 11 11 0 0 1 139 53 L 128 53 L 128 32 L 149 32 A 11 11 0 0 1 160 43 L 160 64 L 181 64 A 11 11 0 0 1 192 75 L 192 96 L 171 96 Z" fill="#000000" stroke="none" stroke-width="0" opacity="1.000"/></svg>