<svg xmlns="http://www.w3.org/2000/svg" viewBox="0 0 256 256" width="256" height="256"><path d="M 208 32 L 48 32 C 37 32 29 40 29 51 L 29 205 C 29 216 37 224 48 224 L 208 224 C 219 224 227 216 227 205 L 227 51 C 227 40 219 32 208 32 Z M 181 160 L 160 160 L 160 181 L 139 181 L 139 160 L 117 160 L 117 139 L 139 139 L 139 117 L 160 117 L 160 139 L 181 139 L 181 160 Z M 181 117 L 181 139 L 160 139 L 160 117 L 181 117 Z M 181 96 L 181 117 L 160 117 L 160 96 L 181 96 Z M 181 75 L 181 96 L 160 96 L 160 75 L 181 75 Z M 181 53 L 181 75 L 160 75 L 160 53 L 181 53 Z" fill="none" stroke="none" stroke-width="0" opacity="1.000"/></svg>