<svg xmlns="http://www.w3.org/2000/svg" viewBox="0 0 256 256" width="256" height="256"><path d="M 230 48 L 26 48 C 21 48 17 52 17 57 L 17 199 C 17 204 21 208 26 208 L 230 208 C 235 208 239 204 239 199 L 239 57 C 239 52 235 48 230 48 Z M 222 199 C 222 203 218 207 213 207 L 43 207 C 38 207 34 203 34 199 L 34 57 C 34 53 38 49 43 49 L 213 49 C 218 49 222 53 222 57 L 222 199 Z M 128 112 C 124 112 120 116 120 120 L 120 136 C 120 140 124 144 128 144 C 132 144 136 140 136 136 L 136 120 C 136 116 132 112 128 112 Z M 128 160 C 124 160 120 164 120 168 L 120 184 C 120 188 124 192 128 192 C 132 192 136 188 136 184 L 136 168 C 136 164 132 160 128 160 Z M 128 208 C 124 208 120 212 120 216 L 120 232 C 120 236 124 240 128 240 C 132 240 136 236 136 232 L 136 216 C 136 212 132 208 128 208 Z" fill="#000000" stroke="none" stroke-width="0" opacity="1.000"/></svg>