<svg xmlns="http://www.w3.org/2000/svg" viewBox="0 0 256 256" width="256" height="256"><rect x="38" y="45" width="179" height="171" rx="21" ry="0" fill="#FFFFFF" stroke="none" stroke-width="0" opacity="1.000"/><circle cx="128" cy="128" r="10" fill="#000000" stroke="none" stroke-width="0" opacity="1.000"/><path d="M 128 128 L 128 128 C 128 128 128 128 128 128 Z" fill="#808080" stroke="none" stroke-width="0" opacity="1.000"/><path d="M 128 128 L 128 128 C 128 128 128 128 128 128 Z" fill="#808080" stroke="none" stroke-width="0" opacity="1.000"/><path d="M 128 128 L 128 128 C 128 128 128 128 128 128 Z" fill="#808080" stroke="none" stroke-width="0" opacity="1.000"/><path d="M 128 128 L 128 128 C 128 128 128 128 128 128 Z" fill="#808080" stroke="none" stroke-width="0" opacity="1.000"/><path d="M 128 128 L 128 128 C 128 128 128 128 128 128 Z" fill="#808080" stroke="none" stroke-width="0" opacity="1.000"/><path d="M 128 128 L 128 128 C 128 128 128 128 128 128 Z" fill="#808080" stroke="none" stroke-width="0" opacity="1.000"/><path d="M 128 128 L 128 128 C 128 128 128 128 128 128 Z" fill="#808080" stroke="none" stroke-width="0" opacity="1.000"/><path d="M 128 128 L 128 128 C 128 128 128 128 128 128 Z" fill="#808080" stroke="none" stroke-width="0" opacity="1.000"/></svg>