<svg xmlns="http://www.w3.org/2000/svg" viewBox="0 0 256 256" width="256" height="256"><path d="M 197 48 L 197 208 C 197 213 193 217 188 217 L 68 217 C 63 217 59 213 59 208 L 59 48 C 59 43 63 39 68 39 L 188 39 C 193 39 197 43 197 48 Z M 188 53 L 68 53 C 64 53 60 56 60 60 L 60 208 C 60 212 64 215 68 215 L 188 215 C 192 215 196 212 196 208 L 196 60 C 196 56 192 53 188 53 Z" fill="#000000" stroke="none" stroke-width="0" opacity="1.000"/><path d="M 128 160 L 128 160 C 128 160 128 160 128 160 C 128 160 128 160 128 160 Z" fill="#228B22" stroke="none" stroke-width="0" opacity="1.000"/><path d="M 128 160 L 128 160 C 128 160 128 160 128 160 C 128 160 128 160 128 160 Z" fill="#228B22" stroke="none" stroke-width="0" opacity="1.000"/></svg>