<svg xmlns="http://www.w3.org/2000/svg" viewBox="0 0 256 256" width="256" height="256"><path d="M 128 0 C 57 0 0 57 0 128 C 0 199 57 255 128 255 C 199 255 255 199 255 128 C 255 57 199 0 128 0 Z M 134 181 L 134 181 A 8 8 0 0 1 122 181 L 122 181 L 122 181 A 8 8 0 0 1 122 169 L 122 169 L 122 169 A 8 8 0 0 1 134 169 L 134 169 L 134 169 A 8 8 0 0 1 134 181 Z M 122 134 L 122 134 A 8 8 0 0 1 110 134 L 110 134 L 110 134 A 8 8 0 0 1 110 122 L 110 122 L 110 122 A 8 8 0 0 1 122 122 L 122 122 L 122 122 A 8 8 0 0 1 122 134 Z M 122 85 L 122 85 A 8 8 0 0 1 110 85 L 110 85 L 110 85 A 8 8 0 0 1 110 73 L 110 73 L 110 73 A 8 8 0 0 1 122 73 L 122 73 L 122 73 A 8 8 0 0 1 122 85 Z M 122 37 L 122 37 A 8 8 0 0 1 110 37 L 110 37 L 110 37 A 8 8 0 0 1 110 25 L 110 25 L 110 25 A 8 8 0 0 1 122 25 L 122 25 L 122 25 A 8 8 0 0 1 122 37 Z" fill="none" stroke="none" stroke-width="0" opacity="1.000"/></svg>