<svg xmlns="http://www.w3.org/2000/svg" viewBox="0 0 256 256" width="256" height="256"><path d="M 32 48 L 32 208 C 32 217 39 224 48 224 L 128 224 C 137 224 144 217 144 208 L 144 48 C 144 39 137 32 128 32 L 48 32 C 39 32 32 39 32 48 Z M 128 160 C 122 160 117 165 117 171 C 117 177 122 182 128 182 C 134 182 139 177 139 171 C 139 165 134 160 128 160 Z M 128 134 C 122 134 117 139 117 145 C 117 151 122 156 128 156 C 134 156 139 151 139 145 C 139 139 134 134 128 134 Z M 128 108 C 122 108 117 113 117 119 C 117 125 122 130 128 130 C 134 130 139 125 139 119 C 139 113 134 108 128 108 Z M 224 48 L 224 208 C 224 217 217 224 208 224 L 128 224 C 119 224 112 217 112 208 L 112 48 C 112 39 119 32 128 32 L 208 32 C 217 32 224 39 224 48 Z M 128 160 C 122 160 117 165 117 171 C 117 177 122 182 128 182 C 134 182 139 177 139 171 C 139 165 134 160 128 160 Z M 128 134 C 122 134 117 139 117 145 C 117 151 122 156 128 156 C 134 156 139 151 139 145 C 139 139 134 134 128 134 Z M 128 108 C 122 108 117 113 117 119 C 117 125 122 130 128 130 C 134 130 139 125 139 119 C 139 113 134 108 128 108 Z" fill="#000000" stroke="none" stroke-width="0" opacity="1.000"/></svg>