<svg xmlns="http://www.w3.org/2000/svg" viewBox="0 0 256 256" width="256" height="256"><path d="M 203 43 L 53 43 C 47 43 43 47 43 53 L 43 203 C 43 209 47 213 53 213 L 203 213 C 209 213 213 209 213 203 L 213 53 C 213 47 209 43 203 43 Z M 181 139 A 11 11 0 1 0 181 117 A 11 11 0 0 0 181 139 Z M 160 139 A 11 11 0 1 0 160 117 A 11 11 0 0 0 160 139 Z M 139 139 A 11 11 0 1 0 139 117 A 11 11 0 0 0 139 139 Z M 117 139 A 11 11 0 1 0 117 117 A 11 11 0 0 0 117 139 Z M 96 139 A 11 11 0 1 0 96 117 A 11 11 0 0 0 96 139 Z M 75 139 A 11 11 0 1 0 75 117 A 11 11 0 0 0 75 139 Z M 53 139 A 11 11 0 1 0 53 117 A 11 11 0 0 0 53 139 Z M 203 203 L 53 203 L 53 53 L 203 53 L 203 203 Z" fill="#000000" stroke="none" stroke-width="0" opacity="1.000"/></svg>