<svg xmlns="http://www.w3.org/2000/svg" viewBox="0 0 256 256" width="256" height="256"><path d="M 197 34 L 59 34 C 50 34 43 41 43 50 L 43 186 C 43 195 50 202 59 202 L 197 202 C 206 202 213 195 213 186 L 213 50 C 213 41 206 34 197 34 Z M 197 186 L 59 186 L 59 50 L 197 50 L 197 186 Z M 128 115 A 16 16 0 1 0 128 83 A 16 16 0 0 0 128 115 Z M 128 160 A 16 16 0 1 0 128 128 A 16 16 0 0 0 128 160 Z M 128 101 A 8 8 0 1 0 128 117 A 8 8 0 0 0 128 101 Z M 128 145 A 8 8 0 1 0 128 161 A 8 8 0 0 0 128 145 Z M 128 156 A 16 16 0 1 0 128 124 A 16 16 0 0 0 128 156 Z M 128 191 A 16 16 0 1 0 128 159 A 16 16 0 0 0 128 191 Z M 128 202 A 8 8 0 1 0 128 218 A 8 8 0 0 0 128 202 Z M 128 237 A 16 16 0 1 0 128 205 A 16 16 0 0 0 128 237 Z" fill="#808080" stroke="none" stroke-width="0" opacity="1.000"/></svg>