<svg xmlns="http://www.w3.org/2000/svg" viewBox="0 0 256 256" width="256" height="256"><path d="M 208 32 L 48 32 C 37 32 29 40 29 51 L 29 205 C 29 216 37 224 48 224 L 208 224 C 219 224 227 216 227 205 L 227 51 C 227 40 219 32 208 32 Z M 181 160 A 11 11 0 1 0 181 181 A 11 11 0 0 0 181 160 Z M 139 160 A 11 11 0 1 0 139 181 A 11 11 0 0 0 139 160 Z M 96 160 A 11 11 0 1 0 96 181 A 11 11 0 0 0 96 160 Z M 181 117 A 11 11 0 1 0 181 139 A 11 11 0 0 0 181 117 Z M 139 117 A 11 11 0 1 0 139 139 A 11 11 0 0 0 139 117 Z M 96 117 A 11 11 0 1 0 96 139 A 11 11 0 0 0 96 117 Z M 181 75 A 11 11 0 1 0 181 96 A 11 11 0 0 0 181 75 Z M 139 75 A 11 11 0 1 0 139 96 A 11 11 0 0 0 139 75 Z M 96 75 A 11 11 0 1 0 96 96 A 11 11 0 0 0 96 75 Z" fill="#000000" stroke="none" stroke-width="0" opacity="1.000"/></svg>