<svg xmlns="http://www.w3.org/2000/svg" viewBox="0 0 256 256" width="256" height="256"><path d="M 203 24 L 53 24 C 42 24 32 34 32 45 L 32 211 C 32 222 42 232 53 232 L 203 232 C 214 232 224 222 224 211 L 224 45 C 224 34 214 24 203 24 Z M 203 211 L 53 211 L 53 45 L 203 45 L 203 211 Z M 179 80 L 139 101 L 139 128 L 117 128 L 117 101 L 77 80 L 117 60 L 117 32 L 139 32 L 139 60 L 179 80 Z M 160 144 L 139 128 L 139 101 L 160 128 L 139 150 L 139 128 L 160 144 Z" fill="#808080" stroke="none" stroke-width="0" opacity="1.000"/></svg>