<svg xmlns="http://www.w3.org/2000/svg" viewBox="0 0 256 256" width="256" height="256"><path d="M 203 43 L 53 43 C 47 43 43 47 43 53 L 43 203 C 43 209 47 213 53 213 L 203 213 C 209 213 213 209 213 203 L 213 53 C 213 47 209 43 203 43 Z M 181 139 A 32 32 0 1 0 181 75 A 32 32 0 0 0 181 139 Z M 160 160 L 160 181 L 139 181 L 139 160 L 117 160 L 117 181 L 96 181 L 96 160 L 75 160 L 75 181 L 53 181 L 53 160 L 32 160 L 32 181 L 11 181 L 11 160 L 32 160 L 32 181 L 11 181 L 11 160 L 11 139 L 32 139 L 32 160 L 11 160 L 11 139 L 32 139 L 32 117 L 11 117 L 11 96 L 32 96 L 32 117 L 53 117 L 53 96 L 75 96 L 75 117 L 96 117 L 96 96 L 117 96 L 117 117 L 139 117 L 139 96 L 160 96 L 160 117 L 181 117 L 181 96 L 203 96 L 203 117 L 181 117 L 181 139 Z" fill="#808080" stroke="none" stroke-width="0" opacity="1.000"/></svg>