<svg xmlns="http://www.w3.org/2000/svg" viewBox="0 0 256 256" width="256" height="256"><path d="M 203 21 L 53 21 C 42 21 32 31 32 43 L 32 213 C 32 225 42 235 53 235 L 203 235 C 214 235 224 225 224 213 L 224 43 C 224 31 214 21 203 21 Z M 181 192 A 11 11 0 0 1 171 181 L 171 160 A 11 11 0 0 1 181 149 L 203 149 A 11 11 0 0 1 213 160 L 213 181 A 11 11 0 0 1 203 192 L 181 192 Z M 181 160 L 181 181 L 203 181 L 203 160 L 181 160 Z M 181 128 A 11 11 0 0 1 171 117 L 171 96 A 11 11 0 0 1 181 85 L 203 85 A 11 11 0 0 1 213 96 L 213 117 A 11 11 0 0 1 203 128 L 181 128 Z M 181 96 L 181 117 L 203 117 L 203 96 L 181 96 Z M 181 64 A 11 11 0 0 1 171 53 L 171 32 A 11 11 0 0 1 181 21 L 203 21 A 11 11 0 0 1 213 32 L 213 53 A 11 11 0 0 1 203 64 L 181 64 Z M 181 32 L 181 53 L 203 53 L 203 32 L 181 32 Z" fill="#000000" stroke="none" stroke-width="0" opacity="1.000"/></svg>