<svg xmlns="http://www.w3.org/2000/svg" viewBox="0 0 256 256" width="256" height="256"><path d="M 128 0 C 57 0 0 57 0 128 C 0 199 57 255 128 255 C 199 255 255 199 255 128 C 255 57 199 0 128 0 Z M 128 234 C 70 234 22 186 22 128 C 22 70 70 22 128 22 C 186 22 234 70 234 128 C 234 186 186 234 128 234 Z M 128 166 A 10 10 0 0 1 118 156 L 118 100 A 10 10 0 0 1 138 100 L 138 156 A 10 10 0 0 1 128 166 Z M 128 118 A 10 10 0 0 1 118 108 L 118 62 A 10 10 0 0 1 138 62 L 138 108 A 10 10 0 0 1 128 118 Z M 128 198 A 10 10 0 0 1 118 188 L 118 142 A 10 10 0 0 1 138 142 L 138 188 A 10 10 0 0 1 128 198 Z M 128 78 A 10 10 0 0 1 118 68 L 118 32 A 10 10 0 0 1 138 32 L 138 68 A 10 10 0 0 1 128 78 Z" fill="#000000" stroke="none" stroke-width="0" opacity="1.000"/></svg>