<svg xmlns="http://www.w3.org/2000/svg" viewBox="0 0 256 256" width="256" height="256"><path d="M 128 0 C 57 0 0 57 0 128 C 0 199 57 255 128 255 C 199 255 255 199 255 128 C 255 57 199 0 128 0 Z M 184 139 L 139 139 L 139 184 C 139 189 135 192 130 192 C 125 192 121 189 121 184 L 121 139 L 76 139 C 71 139 68 135 68 130 C 68 125 71 121 76 121 L 121 121 L 121 76 C 121 71 125 68 130 68 C 135 68 139 71 139 76 L 139 121 L 184 121 C 189 121 192 125 192 130 C 192 135 189 139 184 139 Z" fill="#000000" stroke="none" stroke-width="0" opacity="1.000"/></svg>