<svg xmlns="http://www.w3.org/2000/svg" viewBox="0 0 256 256" width="256" height="256"><path d="M 208 32 L 48 32 C 37 32 29 40 29 51 L 29 205 C 29 216 37 224 48 224 L 208 224 C 219 224 227 216 227 205 L 227 51 C 227 40 219 32 208 32 Z M 208 205 L 48 205 L 48 51 L 208 51 L 208 205 Z M 128 160 C 122 160 117 155 117 149 L 117 117 C 117 111 122 106 128 106 C 134 106 139 111 139 117 L 139 149 C 139 155 134 160 128 160 Z M 171 128 L 128 171 L 85 128 L 107 107 L 128 128 L 171 85 L 181 96 L 128 159 L 75 96 L 85 85 L 128 128 L 171 85 L 171 128 Z" fill="#000000" stroke="none" stroke-width="0" opacity="1.000"/></svg>