<svg xmlns="http://www.w3.org/2000/svg" viewBox="0 0 256 256" width="256" height="256"><path d="M 203 48 L 192 48 C 179 48 168 59 168 72 L 168 184 C 168 197 179 208 192 208 L 203 208 C 216 208 227 197 227 184 L 227 72 C 227 59 216 48 203 48 Z M 192 184 L 192 72 L 203 72 L 203 184 L 192 184 Z M 107 160 L 107 144 L 85 144 L 85 160 L 64 160 L 64 176 L 85 176 L 85 192 L 107 192 L 107 176 L 128 176 L 128 192 L 149 192 L 149 176 L 171 176 L 171 160 L 149 160 L 149 144 L 128 144 L 128 160 L 107 160 Z M 107 128 L 107 112 L 85 112 L 85 128 L 64 128 L 64 144 L 85 144 L 85 160 L 107 160 L 107 144 L 128 144 L 128 160 L 149 160 L 149 144 L 171 144 L 171 128 L 149 128 L 149 112 L 128 112 L 128 128 L 107 128 Z M 107 96 L 107 80 L 85 80 L 85 96 L 64 96 L 64 112 L 85 112 L 85 128 L 107 128 L 107 112 L 128 112 L 128 128 L 149 128 L 149 112 L 171 112 L 171 96 L 149 96 L 149 80 L 128 80 L 128 96 L 107 96 Z" fill="#000000" stroke="none" stroke-width="0" opacity="1.000"/></svg>