<svg xmlns="http://www.w3.org/2000/svg" viewBox="0 0 256 256" width="256" height="256"><path d="M 203 43 L 53 43 C 42 43 32 53 32 64 L 32 192 C 32 203 42 213 53 213 L 203 213 C 214 213 224 203 224 192 L 224 64 C 224 53 214 43 203 43 Z M 171 85 A 11 11 0 0 1 181 96 L 181 160 A 11 11 0 0 1 171 171 L 85 171 A 11 11 0 0 1 75 160 L 75 96 A 11 11 0 0 1 85 85 L 171 85 Z M 128 117 A 11 11 0 0 1 139 128 L 139 160 A 11 11 0 0 1 128 171 L 117 171 A 11 11 0 0 1 107 160 L 107 128 A 11 11 0 0 1 117 117 L 128 117 Z" fill="#000000" stroke="none" stroke-width="0" opacity="1.000"/></svg>