<svg xmlns="http://www.w3.org/2000/svg" viewBox="0 0 256 256" width="256" height="256"><path d="M 107 149 L 107 181 C 107 185 103 189 99 189 C 95 189 91 185 91 181 L 91 149 C 91 145 95 141 99 141 C 103 141 107 145 107 149 Z M 155 149 L 155 181 C 155 185 151 189 147 189 C 143 189 139 185 139 181 L 139 149 C 139 145 143 141 147 141 C 151 141 155 145 155 149 Z" fill="#FF8C00" stroke="none" stroke-width="0" opacity="1.000"/><path d="M 128 255 C 57 255 0 199 0 128 C 0 57 57 0 128 0 C 199 0 255 57 255 128 C 255 199 199 255 128 255 Z M 128 11 C 62 11 11 62 11 128 C 11 194 62 245 128 245 C 194 245 245 194 245 128 C 245 62 194 11 128 11 Z" fill="#1E90FF" stroke="none" stroke-width="0" opacity="1.000"/><path d="M 128 160 A 8 8 0 0 1 120 152 L 120 104 A 8 8 0 0 1 136 104 L 136 152 A 8 8 0 0 1 128 160 Z M 128 112 A 8 8 0 0 1 120 104 L 120 96 A 8 8 0 0 1 136 96 L 136 104 A 8 8 0 0 1 128 112 Z" fill="#1E90FF" stroke="none" stroke-width="0" opacity="1.000"/></svg>