<svg xmlns="http://www.w3.org/2000/svg" viewBox="0 0 256 256" width="256" height="256"><path d="M 32 48 L 32 96 L 0 96 L 0 48 L 32 48 Z M 32 160 L 32 208 L 0 208 L 0 160 L 32 160 Z M 176 48 L 176 96 L 144 96 L 144 48 L 176 48 Z M 176 160 L 176 208 L 144 208 L 144 160 L 176 160 Z M 224 48 L 224 96 L 192 96 L 192 48 L 224 48 Z M 224 160 L 224 208 L 192 208 L 192 160 L 224 160 Z M 128 16 L 128 64 L 160 64 L 160 16 L 128 16 Z M 128 144 L 128 192 L 160 192 L 160 144 L 128 144 Z M 128 80 L 128 112 L 160 112 L 160 80 L 128 80 Z M 128 128 L 128 160 L 160 160 L 160 128 L 128 128 Z" fill="#1E90FF" stroke="none" stroke-width="0" opacity="1.000"/></svg>