<svg xmlns="http://www.w3.org/2000/svg" viewBox="0 0 256 256" width="256" height="256"><path d="M 208 32 L 48 32 C 37 32 29 40 29 51 L 29 205 C 29 216 37 224 48 224 L 208 224 C 219 224 227 216 227 205 L 227 51 C 227 40 219 32 208 32 Z M 208 205 L 48 205 L 48 51 L 208 51 L 208 205 Z M 128 160 C 124 160 120 156 120 152 L 120 104 C 120 100 124 96 128 96 C 132 96 136 100 136 104 L 136 152 C 136 156 132 160 128 160 Z M 128 104 C 125 104 123 106 123 109 L 123 152 C 123 155 125 157 128 157 C 131 157 133 155 133 152 L 133 109 C 133 106 131 104 128 104 Z M 128 144 C 124 144 120 140 120 136 C 120 132 124 128 128 128 C 132 128 136 132 136 136 C 136 140 132 144 128 144 Z" fill="#000000" stroke="none" stroke-width="0" opacity="1.000"/></svg>