<svg xmlns="http://www.w3.org/2000/svg" viewBox="0 0 256 256" width="256" height="256"><path d="M 197 48 L 197 104 C 197 108 194 111 190 111 L 166 111 C 162 111 159 108 159 104 L 159 48 C 159 44 162 41 166 41 L 190 41 C 194 41 197 44 197 48 Z M 100 48 L 100 104 C 100 108 97 111 93 111 L 69 111 C 65 111 62 108 62 104 L 62 48 C 62 44 65 41 69 41 L 93 41 C 97 41 100 44 100 48 Z" fill="#FFFFFF" stroke="none" stroke-width="0" opacity="1.000"/><path d="M 197 104 L 197 160 C 197 164 194 167 190 167 L 166 167 C 162 167 159 164 159 160 L 159 104 C 159 100 162 97 166 97 L 190 97 C 194 97 197 100 197 104 Z M 100 104 L 100 160 C 100 164 97 167 93 167 L 69 167 C 65 167 62 164 62 160 L 62 104 C 62 100 65 97 69 97 L 93 97 C 97 97 100 100 100 104 Z" fill="#1E90FF" stroke="none" stroke-width="0" opacity="1.000"/><path d="M 197 160 L 197 216 C 197 220 194 223 190 223 L 166 223 C 162 223 159 220 159 216 L 159 160 C 159 156 162 153 166 153 L 190 153 C 194 153 197 156 197 160 Z M 100 160 L 100 216 C 100 220 97 223 93 223 L 69 223 C 65 223 62 220 62 216 L 62 160 C 62 156 65 153 69 153 L 93 153 C 97 153 100 156 100 160 Z" fill="#1E90FF" stroke="none" stroke-width="0" opacity="1.000"/></svg>