<svg xmlns="http://www.w3.org/2000/svg" viewBox="0 0 256 256" width="256" height="256"><path d="M 130 24 C 178 24 219 65 219 113 C 219 120 218 127 216 134 L 216 134 A 10 10 0 0 1 206 144 L 206 144 A 10 10 0 0 1 196 134 L 196 134 C 194 127 193 120 193 113 C 193 65 234 24 186 24 C 186 24 130 24 130 24 Z M 130 32 C 171 32 203 64 203 113 C 203 122 202 130 200 137 L 200 137 A 10 10 0 0 1 190 147 L 190 147 A 10 10 0 0 1 180 137 L 180 137 C 178 130 177 122 177 113 C 177 64 209 32 130 32 Z" fill="none" stroke="none" stroke-width="0" opacity="1.000"/></svg>