<svg xmlns="http://www.w3.org/2000/svg" viewBox="0 0 256 256" width="256" height="256"><path d="M 139 48 C 170 48 192 70 192 99 L 192 117 A 11 11 0 0 1 181 128 L 171 128 L 171 149 A 11 11 0 0 1 160 160 L 96 160 A 11 11 0 0 1 85 149 L 85 128 L 75 128 A 11 11 0 0 1 64 117 L 64 99 C 64 70 86 48 117 48 L 139 48 Z M 128 117 A 11 11 0 0 1 139 128 L 171 128 L 171 149 A 11 11 0 0 1 160 160 L 96 160 A 11 11 0 0 1 85 149 L 85 128 L 128 128 A 11 11 0 0 1 128 117 Z M 128 149 A 11 11 0 0 1 139 160 L 171 160 A 11 11 0 0 1 181 149 L 181 128 L 171 128 A 11 11 0 0 1 160 117 L 160 99 C 160 78 143 61 128 61 L 117 61 C 102 61 85 78 85 99 L 85 117 A 11 11 0 0 1 75 128 L 64 128 L 64 149 A 11 11 0 0 1 53 160 L 53 181 A 11 11 0 0 1 43 192 L 213 192 A 11 11 0 0 1 203 181 L 203 160 A 11 11 0 0 1 192 149 L 192 128 L 181 128 A 11 11 0 0 1 171 117 L 171 99 C 171 70 154 48 139 48 L 128 48 L 128 149 Z" fill="#000000" stroke="none" stroke-width="0" opacity="1.000"/></svg>