<svg xmlns="http://www.w3.org/2000/svg" viewBox="0 0 256 256" width="256" height="256"><path d="M 197 80 C 194 73 188 68 181 68 L 171 68 L 171 58 C 171 49 165 43 156 43 L 100 43 C 91 43 85 49 85 58 L 85 68 L 75 68 C 68 68 62 73 59 80 C 56 87 55 94 55 101 L 55 111 C 55 118 56 125 59 132 C 62 139 68 144 75 144 L 85 144 L 85 154 C 85 163 91 169 100 169 L 156 169 C 165 169 171 163 171 154 L 171 144 L 181 144 C 188 144 194 139 197 132 C 200 125 201 118 201 111 L 201 101 C 201 94 200 87 197 80 Z M 100 154 C 98 154 96 152 96 150 L 96 144 L 160 144 L 160 150 C 160 152 158 154 156 154 L 100 154 Z M 100 169 L 156 169 C 158 169 160 171 160 173 L 160 188 L 96 188 L 96 173 C 96 171 98 169 100 169 Z M 100 101 C 100 101 100 101 100 101 L 156 101 C 156 101 156 101 156 101 L 156 101 C 156 101 156 101 156 101 L 100 101 C 100 101 100 101 100 101 Z" fill="#000000" stroke="none" stroke-width="0" opacity="1.000"/></svg>