<svg xmlns="http://www.w3.org/2000/svg" viewBox="0 0 256 256" width="256" height="256"><path d="M 37 48 L 96 48 L 96 96 L 37 96 Z" fill="#FFD700" stroke="none" stroke-width="0" opacity="1.000"/><path d="M 37 48 L 96 48 L 96 96 L 37 96 Z M 37 48 L 96 48 L 96 96 L 37 96 Z" fill="#000000" stroke="none" stroke-width="0" opacity="1.000"/><path d="M 128 48 L 187 48 L 187 96 L 128 96 Z" fill="#FFD700" stroke="none" stroke-width="0" opacity="1.000"/><path d="M 128 48 L 187 48 L 187 96 L 128 96 Z M 128 48 L 187 48 L 187 96 L 128 96 Z" fill="#000000" stroke="none" stroke-width="0" opacity="1.000"/><path d="M 37 136 L 96 136 L 96 184 L 37 184 Z" fill="#FFD700" stroke="none" stroke-width="0" opacity="1.000"/><path d="M 37 136 L 96 136 L 96 184 L 37 184 Z M 37 136 L 96 136 L 96 184 L 37 184 Z" fill="#000000" stroke="none" stroke-width="0" opacity="1.000"/><path d="M 128 136 L 187 136 L 187 184 L 128 184 Z" fill="#FFD700" stroke="none" stroke-width="0" opacity="1.000"/><path d="M 128 136 L 187 136 L 187 184 L 128 184 Z M 128 136 L 187 136 L 187 184 L 128 184 Z" fill="#000000" stroke="none" stroke-width="0" opacity="1.000"/><path d="M 37 224 L 96 224 L 96 240 L 37 240 Z" fill="#FFD700" stroke="none" stroke-width="0" opacity="1.000"/><path d="M 37 224 L 96 224 L 96 240 L 37 240 Z M 37 224 L 96 224 L 96 240 L 37 240 Z" fill="#000000" stroke="none" stroke-width="0" opacity="1.000"/></svg>