<svg xmlns="http://www.w3.org/2000/svg" viewBox="0 0 256 256" width="256" height="256"><path d="M 128 0 C 57 0 0 57 0 128 C 0 199 57 255 128 255 C 199 255 255 199 255 128 C 255 57 199 0 128 0 Z M 128 234 C 71 234 22 185 22 128 C 22 71 71 22 128 22 C 185 22 234 71 234 128 C 234 185 185 234 128 234 Z M 128 160 A 12 12 0 0 1 116 148 L 116 112 A 12 12 0 0 1 140 112 L 140 148 A 12 12 0 0 1 128 160 Z M 128 184 A 12 12 0 0 1 116 172 L 116 136 A 12 12 0 0 1 140 136 L 140 172 A 12 12 0 0 1 128 184 Z" fill="#000000" stroke="none" stroke-width="0" opacity="1.000"/></svg>