<svg xmlns="http://www.w3.org/2000/svg" viewBox="0 0 256 256" width="256" height="256"><path d="M 139 48 L 139 75 L 107 75 L 107 48 L 139 48 Z M 139 117 L 139 144 L 107 144 L 107 117 L 139 117 Z M 139 176 L 139 203 L 107 203 L 107 176 L 139 176 Z M 139 224 L 139 251 L 107 251 L 107 224 L 139 224 Z M 139 160 L 139 187 L 107 187 L 107 160 L 139 160 Z M 139 128 L 139 155 L 107 155 L 107 128 L 139 128 Z M 139 85 L 139 112 L 107 112 L 107 85 L 139 85 Z M 139 43 L 139 70 L 107 70 L 107 43 L 139 43 Z M 139 21 L 139 48 L 107 48 L 107 21 L 139 21 Z M 139 21 L 139 48 L 107 48 L 107 21 L 139 21 Z" fill="#000000" stroke="none" stroke-width="0" opacity="1.000"/></svg>