<svg xmlns="http://www.w3.org/2000/svg" viewBox="0 0 256 256" width="256" height="256"><path d="M 203 48 L 197 48 L 197 32 C 197 26 192 21 186 21 L 70 21 C 64 21 59 26 59 32 L 59 48 L 53 48 C 47 48 43 53 43 59 L 43 213 C 43 220 47 224 53 224 L 203 224 C 209 224 213 220 213 213 L 213 59 C 213 53 209 48 203 48 Z M 181 181 L 75 181 L 75 160 L 181 160 L 181 181 Z M 181 139 L 75 139 L 75 117 L 181 117 L 181 139 Z M 181 96 L 75 96 L 75 75 L 181 75 L 181 96 Z" fill="#808080" stroke="none" stroke-width="0" opacity="1.000"/></svg>