<svg xmlns="http://www.w3.org/2000/svg" viewBox="0 0 256 256" width="256" height="256"><path d="M 194 20 L 62 20 C 47 20 35 32 35 48 L 35 208 C 35 224 47 236 62 236 L 194 236 C 209 236 221 224 221 208 L 221 48 C 221 32 209 20 194 20 Z M 194 221 L 62 221 C 51 221 43 213 43 202 L 43 54 C 43 43 51 35 62 35 L 194 35 C 205 35 213 43 213 54 L 213 202 C 213 213 205 221 194 221 Z" fill="#228B22" stroke="none" stroke-width="0" opacity="1.000"/><path d="M 128 160 A 16 16 0 1 0 128 192 A 16 16 0 0 0 128 160 Z" fill="#FF8C00" stroke="none" stroke-width="0" opacity="1.000"/><path d="M 128 160 A 16 16 0 1 0 128 192 A 16 16 0 0 0 128 160 Z M 128 160 A 16 16 0 1 0 128 192 A 16 16 0 0 0 128 160 Z" fill="#228B22" stroke="none" stroke-width="0" opacity="1.000"/></svg>