<svg xmlns="http://www.w3.org/2000/svg" viewBox="0 0 256 256" width="256" height="256"><path d="M 32 48 C 32 37 40 29 50 29 L 206 29 C 216 29 224 37 224 48 L 224 208 C 224 219 216 227 206 227 L 50 227 C 40 227 32 219 32 208 L 32 48 Z M 107 107 A 11 11 0 1 0 128 107 A 11 11 0 0 0 107 107 Z M 107 149 A 11 11 0 1 0 128 149 A 11 11 0 0 0 107 149 Z M 107 181 A 11 11 0 1 0 128 181 A 11 11 0 0 0 107 181 Z M 64 107 A 11 11 0 1 0 85 107 A 11 11 0 0 0 64 107 Z M 64 149 A 11 11 0 1 0 85 149 A 11 11 0 0 0 64 149 Z M 64 181 A 11 11 0 1 0 85 181 A 11 11 0 0 0 64 181 Z" fill="#000000" stroke="none" stroke-width="0" opacity="1.000"/></svg>