<svg xmlns="http://www.w3.org/2000/svg" viewBox="0 0 256 256" width="256" height="256"><path d="M 203 43 L 53 43 C 47 43 43 47 43 53 L 43 203 C 43 209 47 213 53 213 L 203 213 C 209 213 213 209 213 203 L 213 53 C 213 47 209 43 203 43 Z M 203 203 L 53 203 L 53 53 L 203 53 L 203 203 Z M 181 128 L 139 128 L 139 149 L 181 149 L 181 128 Z M 181 107 L 139 107 L 139 128 L 181 128 L 181 107 Z M 181 85 L 139 85 L 139 107 L 181 107 L 181 85 Z M 181 64 L 139 64 L 139 85 L 181 85 L 181 64 Z M 181 43 L 139 43 L 139 64 L 181 64 L 181 43 Z" fill="#808080" stroke="none" stroke-width="0" opacity="1.000"/></svg>