<svg xmlns="http://www.w3.org/2000/svg" viewBox="0 0 256 256" width="256" height="256"><path d="M 32 48 L 32 96 L 70 96 L 70 48 L 32 48 Z M 32 112 L 32 160 L 70 160 L 70 112 L 32 112 Z M 32 168 L 32 216 L 70 216 L 70 168 L 32 168 Z M 112 48 L 112 96 L 150 96 L 150 48 L 112 48 Z M 112 112 L 112 160 L 150 160 L 150 112 L 112 112 Z M 112 168 L 112 216 L 150 216 L 150 168 L 112 168 Z M 192 48 L 192 96 L 230 96 L 230 48 L 192 48 Z M 192 112 L 192 160 L 230 160 L 230 112 L 192 112 Z M 192 168 L 192 216 L 230 216 L 230 168 L 192 168 Z" fill="#000000" stroke="none" stroke-width="0" opacity="1.000"/></svg>