<svg xmlns="http://www.w3.org/2000/svg" viewBox="0 0 256 256" width="256" height="256"><path d="M 208 32 L 48 32 C 37 32 29 40 29 51 L 29 205 C 29 216 37 224 48 224 L 208 224 C 219 224 227 216 227 205 L 227 51 C 227 40 219 32 208 32 Z M 181 181 L 75 181 C 70 181 66 177 66 172 C 66 167 70 163 75 163 L 181 163 C 186 163 190 167 190 172 C 190 177 186 181 181 181 Z M 181 139 L 75 139 C 70 139 66 135 66 130 C 66 125 70 121 75 121 L 181 121 C 186 121 190 125 190 130 C 190 135 186 139 181 139 Z M 181 96 L 75 96 C 70 96 66 92 66 87 C 66 82 70 78 75 78 L 181 78 C 186 78 190 82 190 87 C 190 92 186 96 181 96 Z M 181 117 L 75 117 C 70 117 66 113 66 108 C 66 103 70 99 75 99 L 181 99 C 186 99 190 103 190 108 C 190 113 186 117 181 117 Z M 181 155 L 75 155 C 70 155 66 151 66 146 C 66 141 70 137 75 137 L 181 137 C 186 137 190 141 190 146 C 190 151 186 155 181 155 Z M 181 193 L 75 193 C 70 193 66 189 66 184 C 66 179 70 175 75 175 L 181 175 C 186 175 190 179 190 184 C 190 189 186 193 181 193 Z" fill="#000000" stroke="none" stroke-width="0" opacity="1.000"/></svg>