<svg xmlns="http://www.w3.org/2000/svg" viewBox="0 0 256 256" width="256" height="256"><path d="M 193 147 L 183 147 C 183 147 183 147 183 147 L 183 147 Z" fill="#00B4B4" stroke="none" stroke-width="0" opacity="1.000"/><path d="M 183 147 L 183 147 C 183 147 183 147 183 147 L 183 147 Z" fill="#00B4B4" stroke="none" stroke-width="0" opacity="1.000"/><path d="M 183 147 L 183 147 C 183 147 183 147 183 147 L 183 147 Z" fill="#00B4B4" stroke="none" stroke-width="0" opacity="1.000"/><path d="M 183 147 L 183 147 C 183 147 183 147 183 147 L 183 147 Z" fill="#00B4B4" stroke="none" stroke-width="0" opacity="1.000"/><path d="M 183 147 L 183 147 C 183 147 183 147 183 147 L 183 147 Z" fill="#00B4B4" stroke="none" stroke-width="0" opacity="1.000"/><path d="M 183 147 L 183 147 C 183 147 183 147 183 147 L 183 147 Z" fill="#00B4B4" stroke="none" stroke-width="0" opacity="1.000"/><path d="M 183 147 L 183 147 C 183 147 183 147 183 147 L 183 147 Z" fill="#00B4B4" stroke="none" stroke-width="0" opacity="1.000"/><path d="M 183 147 L 183 147 C 183 147 183 147 183 147 L 183 147 Z" fill="#00B4B4" stroke="none" stroke-width="0" opacity="1.000"/><path d="M 183 147 L 183 147 C 183 147 183 147 183 147 L 183 147 Z" fill="#00B4B4" stroke="none" stroke-width="0" opacity="1.000"/><path d="M 183 147 L 183 147 C 183 147 183 147 183 147 L 183 147 Z" fill="#00B4B4" stroke="none" stroke-width="0" opacity="1.000"/></svg>