<svg xmlns="http://www.w3.org/2000/svg" viewBox="0 0 256 256" width="256" height="256"><path d="M 139 14 C 70 14 14 70 14 139 C 14 208 70 254 139 254 C 208 254 254 208 254 139 C 254 70 208 14 139 14 Z M 139 230 C 187 230 230 187 230 139 C 230 91 187 48 139 48 C 91 48 48 91 48 139 C 48 187 91 230 139 230 Z M 128 186 L 110 178 A 10 10 0 0 0 98 186 L 80 194 A 10 10 0 0 0 80 210 L 98 218 A 10 10 0 0 0 110 216 L 128 208 A 10 10 0 0 0 136 216 L 154 218 A 10 10 0 0 0 154 202 L 136 194 A 10 10 0 0 0 128 186 Z M 128 146 L 110 138 A 10 10 0 0 0 98 146 L 80 154 A 10 10 0 0 0 80 170 L 98 178 A 10 10 0 0 0 110 176 L 128 168 A 10 10 0 0 0 136 176 L 154 178 A 10 10 0 0 0 154 154 L 136 146 A 10 10 0 0 0 128 146 Z M 128 106 L 110 98 A 10 10 0 0 0 98 106 L 80 114 A 10 10 0 0 0 80 130 L 98 138 A 10 10 0 0 0 110 136 L 128 128 A 10 10 0 0 0 136 136 L 154 138 A 10 10 0 0 0 154 114 L 136 106 A 10 10 0 0 0 128 106 Z M 128 66 L 110 58 A 10 10 0 0 0 98 66 L 80 74 A 10 10 0 0 0 80 90 L 98 98 A 10 10 0 0 0 110 96 L 128 88 A 10 10 0 0 0 136 96 L 154 98 A 10 10 0 0 0 154 74 L 136 66 A 10 10 0 0 0 128 66 Z" fill="#1E90FF" stroke="none" stroke-width="0" opacity="1.000"/></svg>