<svg xmlns="http://www.w3.org/2000/svg" viewBox="0 0 256 256" width="256" height="256"><path d="M 230 47 L 26 47 C 20 47 16 51 16 57 L 16 209 C 16 215 20 219 26 219 L 230 219 C 236 219 240 215 240 209 L 240 57 C 240 51 236 47 230 47 Z M 228 209 C 228 213 224 217 220 217 L 36 217 C 32 217 28 213 28 209 L 28 57 C 28 53 32 49 36 49 L 220 49 C 224 49 228 53 228 57 L 228 209 Z M 128 160 C 124 160 120 164 120 168 L 120 209 C 120 213 124 217 128 217 C 132 217 136 213 136 209 L 136 168 C 136 164 132 160 128 160 Z M 128 181 C 126 181 124 180 123 178 L 96 151 C 94 149 94 146 96 144 C 98 142 101 142 103 144 L 128 169 L 153 144 C 155 142 158 142 160 144 C 162 146 162 149 160 151 L 133 178 C 132 180 130 181 128 181 Z" fill="#000000" stroke="none" stroke-width="0" opacity="1.000"/></svg>