<svg xmlns="http://www.w3.org/2000/svg" viewBox="0 0 256 256" width="256" height="256"><path d="M 203 48 L 192 48 L 192 32 C 192 27 188 24 183 24 L 73 24 C 68 24 64 27 64 32 L 64 48 L 53 48 C 48 48 45 52 45 56 L 45 200 C 45 204 48 208 53 208 L 203 208 C 208 208 211 204 211 200 L 211 56 C 211 52 208 48 203 48 Z M 181 160 L 181 176 L 75 176 L 75 160 L 181 160 Z M 181 128 L 181 144 L 75 144 L 75 128 L 181 128 Z M 181 96 L 181 112 L 75 112 L 75 96 L 181 96 Z M 181 64 L 181 80 L 75 80 L 75 64 L 181 64 Z" fill="#000000" stroke="none" stroke-width="0" opacity="1.000"/></svg>