<svg xmlns="http://www.w3.org/2000/svg" viewBox="0 0 256 256" width="256" height="256"><path d="M 208 32 L 48 32 C 37 32 29 40 29 51 L 29 128 C 29 139 37 147 48 147 L 107 147 L 107 160 L 48 160 C 40 160 32 168 32 176 L 32 208 C 32 216 40 224 48 224 L 208 224 C 216 224 224 216 224 208 L 224 176 C 224 168 216 160 208 160 L 151 160 L 151 147 L 208 147 C 219 147 227 139 227 128 L 227 51 C 227 40 219 32 208 32 Z M 181 128 L 181 147 L 134 147 L 134 128 L 181 128 Z M 181 107 L 181 128 L 134 128 L 134 107 L 181 107 Z M 181 85 L 181 107 L 134 107 L 134 85 L 181 85 Z M 181 64 L 181 85 L 134 85 L 134 64 L 181 64 Z M 181 43 L 181 64 L 134 64 L 134 43 L 181 43 Z M 181 21 L 181 43 L 134 43 L 134 21 L 181 21 Z" fill="none" stroke="none" stroke-width="0" opacity="1.000"/></svg>