<svg xmlns="http://www.w3.org/2000/svg" viewBox="0 0 256 256" width="256" height="256"><path d="M 139 149 L 171 181 A 11 11 0 0 0 181 171 L 149 139 L 224 139 A 11 11 0 0 0 224 117 L 149 117 L 181 85 A 11 11 0 0 0 171 75 L 139 107 L 139 43 A 11 11 0 0 0 117 43 L 117 107 L 85 75 A 11 11 0 0 0 75 85 L 117 117 L 117 139 L 75 139 A 11 11 0 0 0 75 160 L 117 192 L 117 213 A 11 11 0 0 0 139 213 L 139 192 L 181 160 A 11 11 0 0 0 171 149 L 139 181 Z" fill="#808080" stroke="none" stroke-width="0" opacity="1.000"/></svg>