<svg xmlns="http://www.w3.org/2000/svg" viewBox="0 0 256 256" width="256" height="256"><path d="M 197 240 L 59 240 C 48 240 39 231 39 220 L 39 36 C 39 25 48 16 59 16 L 197 16 C 208 16 217 25 217 36 L 217 220 C 217 231 208 240 197 240 Z M 59 29 C 54 29 50 33 50 36 L 50 220 C 50 224 54 228 59 228 L 197 228 C 201 228 205 224 205 220 L 205 36 C 205 33 201 29 197 29 L 59 29 Z" fill="#1E90FF" stroke="none" stroke-width="0" opacity="1.000"/><path d="M 197 240 L 59 240 C 48 240 39 231 39 220 L 39 36 C 39 25 48 16 59 16 L 197 16 C 208 16 217 25 217 36 L 217 220 C 217 231 208 240 197 240 Z M 59 29 C 54 29 50 33 50 36 L 50 220 C 50 224 54 228 59 228 L 197 228 C 201 228 205 224 205 220 L 205 36 C 205 33 201 29 197 29 L 59 29 Z" fill="#1E90FF" stroke="none" stroke-width="0" opacity="1.000"/><path d="M 197 240 L 59 240 C 48 240 39 231 39 220 L 39 36 C 39 25 48 16 59 16 L 197 16 C 208 16 217 25 217 36 L 217 220 C 217 231 208 240 197 240 Z M 59 29 C 54 29 50 33 50 36 L 50 220 C 50 224 54 228 59 228 L 197 228 C 201 228 205 224 205 220 L 205 36 C 205 33 201 29 197 29 L 59 29 Z" fill="#1E90FF" stroke="none" stroke-width="0" opacity="1.000"/></svg>