<svg xmlns="http://www.w3.org/2000/svg" viewBox="0 0 256 256" width="256" height="256"><path d="M 0 0 L 255 0 L 255 255 L 0 255 Z M 128 192 C 147 192 166 181 179 166 C 193 151 203 132 203 111 C 203 90 193 71 179 56 C 166 41 147 32 128 32 C 109 32 90 41 77 56 C 63 71 53 90 53 111 C 53 132 63 151 77 166 C 90 181 109 192 128 192 Z M 128 128 C 115 128 104 117 104 104 C 104 91 115 80 128 80 C 141 80 152 91 152 104 C 152 117 141 128 128 128 Z" fill="#000000" stroke="none" stroke-width="0" opacity="1.000"/></svg>