<svg xmlns="http://www.w3.org/2000/svg" viewBox="0 0 256 256" width="256" height="256"><path d="M 184 179 L 184 107 C 184 102 180 98 175 98 L 128 98 C 123 98 119 102 119 107 L 119 179 C 119 184 123 188 128 188 L 175 188 C 180 188 184 184 184 179 Z M 175 171 L 128 171 L 128 107 L 175 107 L 175 171 Z" fill="#FFD700" stroke="none" stroke-width="0" opacity="1.000"/><path d="M 175 171 L 128 171 L 128 107 L 175 107 L 175 171 Z M 175 171 L 128 171 L 128 107 L 175 107 L 175 171 Z" fill="#1E90FF" stroke="none" stroke-width="0" opacity="1.000"/><path d="M 128 171 L 128 107 L 175 107 L 175 171 L 128 171 Z M 175 171 L 128 171 L 128 107 L 175 107 L 175 171 Z" fill="#1E90FF" stroke="none" stroke-width="0" opacity="1.000"/></svg>