<svg xmlns="http://www.w3.org/2000/svg" viewBox="0 0 256 256" width="256" height="256"><path d="M 17 128 A 111 111 0 1 0 239 128 A 111 111 0 1 0 17 128 Z" fill="#1E90FF" stroke="none" stroke-width="0" opacity="1.000"/><path d="M 149 107 L 107 107 C 103 107 100 104 100 100 C 100 96 103 93 107 93 L 149 93 C 153 93 156 96 156 100 C 156 104 153 107 149 107 Z M 149 139 L 107 139 C 103 139 100 136 100 132 C 100 128 103 125 107 125 L 149 125 C 153 125 156 128 156 132 C 156 136 153 139 149 139 Z M 149 171 L 107 171 C 103 171 100 168 100 164 C 100 160 103 157 107 157 L 149 157 C 153 157 156 160 156 164 C 156 168 153 171 149 171 Z" fill="#FFFFFF" stroke="none" stroke-width="0" opacity="1.000"/><path d="M 149 171 L 107 171 C 103 171 100 168 100 164 C 100 160 103 157 107 157 L 149 157 C 153 157 156 160 156 164 C 156 168 153 171 149 171 Z M 149 139 L 107 139 C 103 139 100 136 100 132 C 100 128 103 125 107 125 L 149 125 C 153 125 156 128 156 132 C 156 136 153 139 149 139 Z M 149 107 L 107 107 C 103 107 100 104 100 100 C 100 96 103 93 107 93 L 149 93 C 153 93 156 96 156 100 C 156 104 153 107 149 107 Z" fill="#FFFFFF" stroke="none" stroke-width="0" opacity="1.000"/></svg>