<svg xmlns="http://www.w3.org/2000/svg" viewBox="0 0 256 256" width="256" height="256"><path d="M 197 34 L 180 17 A 11 11 0 0 0 166 17 L 149 34 L 149 222 A 11 11 0 0 0 160 233 L 176 233 A 11 11 0 0 0 187 222 L 187 34 L 197 34 Z M 160 213 L 160 43 L 176 43 L 176 213 L 160 213 Z M 107 117 L 107 139 L 128 139 L 128 117 L 107 117 Z M 107 160 L 107 181 L 128 181 L 128 160 L 107 160 Z M 149 117 L 149 139 L 171 139 L 171 117 L 149 117 Z M 149 160 L 149 181 L 171 181 L 171 160 L 149 160 Z M 107 192 L 107 213 L 128 213 L 128 192 L 107 192 Z M 149 192 L 149 213 L 171 213 L 171 192 L 149 192 Z" fill="#000000" stroke="none" stroke-width="0" opacity="1.000"/></svg>