<svg xmlns="http://www.w3.org/2000/svg" viewBox="0 0 256 256" width="256" height="256"><path d="M 130 4 C 178 4 219 40 219 88 L 219 104 C 219 105 219 106 219 107 L 219 107 C 219 145 181 179 130 179 C 79 179 41 145 41 107 L 41 107 C 41 106 41 105 41 104 L 41 88 C 41 40 82 4 130 4 Z M 130 165 C 181 165 219 137 219 104 L 219 104 C 219 103 219 102 219 101 L 219 88 C 219 40 178 4 130 4 C 82 4 41 40 41 88 L 41 101 C 41 102 41 103 41 104 L 41 104 C 41 137 79 165 130 165 Z M 130 151 C 178 151 219 119 219 88 L 219 88 C 219 87 219 86 219 85 L 219 85 C 219 84 219 83 219 82 L 219 82 C 219 44 181 11 130 11 C 79 11 41 44 41 82 L 41 82 C 41 83 41 84 41 85 L 41 85 C 41 86 41 87 41 88 L 41 88 C 41 119 79 151 130 151 Z" fill="#1E90FF" stroke="none" stroke-width="0" opacity="1.000"/></svg>