<svg xmlns="http://www.w3.org/2000/svg" viewBox="0 0 256 256" width="256" height="256"><path d="M 139 48 C 170 48 192 70 192 96 C 192 122 170 144 139 144 C 108 144 86 122 86 96 C 86 70 108 48 139 48 Z M 139 128 C 157 128 171 114 171 96 C 171 78 157 64 139 64 C 121 64 107 78 107 96 C 107 114 121 128 139 128 Z M 139 208 C 170 208 192 180 192 152 C 192 124 170 96 139 96 C 108 96 86 124 86 152 C 86 180 108 208 139 208 Z M 139 112 C 157 112 171 98 171 80 C 171 62 157 48 139 48 C 121 48 107 62 107 80 C 107 98 121 112 139 112 Z" fill="#FF69B4" stroke="none" stroke-width="0" opacity="1.000"/></svg>