<svg xmlns="http://www.w3.org/2000/svg" viewBox="0 0 256 256" width="256" height="256"><path d="M 139 48 L 139 107 L 117 107 L 117 48 L 139 48 M 139 21 L 117 21 C 106 21 96 31 96 43 L 96 213 C 96 225 106 235 117 235 L 139 235 C 150 235 160 225 160 213 L 160 43 C 160 31 150 21 139 21 Z M 128 160 C 122 160 117 155 117 149 L 117 128 C 117 122 122 117 128 117 C 134 117 139 122 139 128 L 139 149 C 139 155 134 160 128 160 Z M 128 181 C 122 181 117 176 117 170 L 117 149 C 117 143 122 139 128 139 C 134 139 139 143 139 149 L 139 170 C 139 176 134 181 128 181 Z" fill="none" stroke="none" stroke-width="0" opacity="1.000"/></svg>