<svg xmlns="http://www.w3.org/2000/svg" viewBox="0 0 256 256" width="256" height="256"><path d="M 32 48 L 32 208 C 32 217 39 224 48 224 L 208 224 C 217 224 224 217 224 208 L 224 48 C 224 39 217 32 208 32 L 48 32 C 39 32 32 39 32 48 Z M 160 160 L 160 192 L 192 192 L 192 160 L 224 160 L 224 192 L 255 192 L 255 160 L 224 160 L 224 136 L 192 136 L 192 104 L 160 104 L 160 136 L 128 136 L 128 160 L 160 160 Z M 48 160 L 48 192 L 80 192 L 80 160 L 48 160 Z M 160 160 L 160 192 L 192 192 L 192 160 L 160 160 Z M 208 160 L 208 192 L 240 192 L 240 160 L 208 160 Z" fill="#000000" stroke="none" stroke-width="0" opacity="1.000"/></svg>