<svg xmlns="http://www.w3.org/2000/svg" viewBox="0 0 256 256" width="256" height="256"><path d="M 107 32 C 84 32 64 52 64 75 C 64 98 84 117 107 117 C 130 117 150 98 150 75 C 150 52 130 32 107 32 Z M 107 107 C 90 107 75 92 75 75 C 75 58 90 43 107 43 C 124 43 139 58 139 75 C 139 92 124 107 107 107 Z M 107 139 C 84 139 64 159 64 181 C 64 204 84 224 107 224 C 130 224 150 204 150 181 C 150 159 130 139 107 139 Z M 107 160 C 90 160 75 145 75 128 C 75 111 90 96 107 96 C 124 96 139 111 139 128 C 139 145 124 160 107 160 Z M 181 32 C 158 32 139 52 139 75 C 139 98 158 117 181 117 C 204 117 224 98 224 75 C 224 52 204 32 181 32 Z M 181 107 C 164 107 149 92 149 75 C 149 58 164 43 181 43 C 198 43 213 58 213 75 C 213 92 198 107 181 107 Z M 181 139 C 158 139 139 159 139 181 C 139 204 158 224 181 224 C 204 224 224 204 224 181 C 224 159 204 139 181 139 Z M 181 160 C 164 160 149 145 149 128 C 149 111 164 96 181 96 C 198 96 213 111 213 128 C 213 145 198 160 181 160 Z" fill="#808080" stroke="none" stroke-width="0" opacity="1.000"/></svg>