<svg xmlns="http://www.w3.org/2000/svg" viewBox="0 0 256 256" width="256" height="256"><path d="M 197 80 L 197 43 C 197 36 192 31 185 31 L 71 31 C 64 31 59 36 59 43 L 59 80 L 197 80 Z M 197 101 L 59 101 L 59 123 L 197 123 L 197 101 Z" fill="#1E90FF" stroke="none" stroke-width="0" opacity="1.000"/><path d="M 197 144 L 197 123 L 59 123 L 59 144 L 197 144 Z M 197 165 L 197 144 L 59 144 L 59 165 L 197 165 Z M 197 186 L 197 165 L 59 165 L 59 186 L 197 186 Z" fill="#808080" stroke="none" stroke-width="0" opacity="1.000"/><path d="M 197 224 L 59 224 A 13 13 0 0 1 46 211 L 46 186 A 13 13 0 0 1 59 173 L 197 173 A 13 13 0 0 1 210 186 L 210 211 A 13 13 0 0 1 197 224 Z M 59 186 L 59 211 L 197 211 L 197 186 L 59 186 Z" fill="#1E90FF" stroke="none" stroke-width="0" opacity="1.000"/></svg>