<svg xmlns="http://www.w3.org/2000/svg" viewBox="0 0 256 256" width="256" height="256"><path d="M 128 0 C 199 0 255 57 255 128 C 255 199 199 255 128 255 C 57 255 0 199 0 128 C 0 57 57 0 128 0 Z M 128 32 C 64 32 16 72 16 128 C 16 184 64 224 128 224 C 192 224 240 184 240 128 C 240 72 192 32 128 32 Z M 128 16 C 181 16 224 59 224 128 C 224 197 181 240 128 240 C 75 240 32 197 32 128 C 32 59 75 16 128 16 Z M 128 112 C 107 112 91 96 91 75 C 91 54 107 38 128 38 C 149 38 165 54 165 75 C 165 96 149 112 128 112 Z M 128 53 C 115 53 105 63 105 75 C 105 87 115 97 128 97 C 141 97 151 87 151 75 C 151 63 141 53 128 53 Z M 128 139 C 115 139 105 129 105 117 C 105 105 115 95 128 95 C 141 95 151 105 151 117 C 151 129 141 139 128 139 Z M 128 171 C 115 171 105 161 105 149 C 105 137 115 127 128 127 C 141 127 151 137 151 149 C 151 161 141 171 128 171 Z M 128 203 C 115 203 105 193 105 181 C 105 169 115 159 128 159 C 141 159 151 169 151 181 C 151 193 141 203 128 203 Z M 128 235 C 115 235 105 225 105 213 C 105 201 115 191 128 191 C 141 191 151 201 151 213 C 151 225 141 235 128 235 Z" fill="#000000" stroke="none" stroke-width="0" opacity="1.000"/></svg>