<svg xmlns="http://www.w3.org/2000/svg" viewBox="0 0 256 256" width="256" height="256"><path d="M 32 48 L 32 208 C 32 217 39 224 48 224 L 208 224 C 217 224 224 217 224 208 L 224 48 C 224 39 217 32 208 32 L 48 32 C 39 32 32 39 32 48 Z M 160 160 L 96 160 C 92 160 88 164 88 168 C 88 172 92 176 96 176 L 160 176 C 164 176 168 172 168 168 C 168 164 164 160 160 160 Z M 160 112 L 96 112 C 92 112 88 116 88 120 C 88 124 92 128 96 128 L 160 128 C 164 128 168 124 168 120 C 168 116 164 112 160 112 Z M 160 64 L 96 64 C 92 64 88 68 88 72 C 88 76 92 80 96 80 L 160 80 C 164 80 168 76 168 72 C 168 68 164 64 160 64 Z" fill="none" stroke="none" stroke-width="0" opacity="1.000"/></svg>