<svg xmlns="http://www.w3.org/2000/svg" viewBox="0 0 256 256" width="256" height="256"><path d="M 197 240 L 59 240 C 38 240 21 223 21 202 L 21 59 C 21 38 38 21 59 21 L 197 21 C 218 21 235 38 235 59 L 235 202 C 235 223 218 240 197 240 Z M 59 37 C 47 37 37 47 37 59 L 37 202 C 37 214 47 224 59 224 L 197 224 C 209 224 219 214 219 202 L 219 59 C 219 47 209 37 197 37 L 59 37 Z" fill="#808080" stroke="none" stroke-width="0" opacity="1.000"/><path d="M 128 160 A 32 32 0 1 0 160 128 A 32 32 0 0 0 128 160 Z M 128 107 A 16 16 0 1 1 144 123 A 16 16 0 0 1 128 107 Z" fill="#FF8C00" stroke="none" stroke-width="0" opacity="1.000"/><path d="M 128 160 A 32 32 0 1 0 160 128 A 32 32 0 0 0 128 160 Z M 128 107 A 16 16 0 1 1 144 123 A 16 16 0 0 1 128 107 Z M 128 160 A 32 32 0 1 0 160 128 A 32 32 0 0 0 128 160 Z M 128 107 A 16 16 0 1 1 144 123 A 16 16 0 0 1 128 107 Z" fill="#FF8C00" stroke="none" stroke-width="0" opacity="1.000"/></svg>