<svg xmlns="http://www.w3.org/2000/svg" viewBox="0 0 256 256" width="256" height="256"><path d="M 197 43 L 180 43 C 176 43 173 46 173 50 C 173 54 176 57 180 57 L 197 57 C 201 57 204 54 204 50 C 204 46 201 43 197 43 Z M 197 199 L 180 199 C 176 199 173 202 173 206 C 173 210 176 213 180 213 L 197 213 C 201 213 204 210 204 206 C 204 202 201 199 197 199 Z M 128 199 L 111 199 C 107 199 104 202 104 206 C 104 210 107 213 111 213 L 128 213 C 132 213 135 210 135 206 C 135 202 132 199 128 199 Z M 128 57 L 111 57 C 107 57 104 54 104 50 C 104 46 107 43 111 43 L 128 43 C 132 43 135 46 135 50 C 135 54 132 57 128 57 Z M 128 111 L 111 111 C 107 111 104 114 104 118 C 104 122 107 125 111 125 L 128 125 C 132 125 135 122 135 118 C 135 114 132 111 128 111 Z M 128 145 L 111 145 C 107 145 104 148 104 152 C 104 156 107 159 111 159 L 128 159 C 132 159 135 156 135 152 C 135 148 132 145 128 145 Z M 128 75 L 111 75 C 107 75 104 78 104 82 C 104 86 107 89 111 89 L 128 89 C 132 89 135 86 135 82 C 135 78 132 75 128 75 Z" fill="#000000" stroke="none" stroke-width="0" opacity="1.000"/></svg>