<svg xmlns="http://www.w3.org/2000/svg" viewBox="0 0 256 256" width="256" height="256"><path d="M 197 34 L 59 34 C 48 34 39 43 39 54 L 39 202 C 39 213 48 222 59 222 L 197 222 C 208 222 217 213 217 202 L 217 54 C 217 43 208 34 197 34 Z M 197 202 L 59 202 L 59 54 L 197 54 L 197 202 Z M 128 160 A 11 11 0 1 0 128 181 A 11 11 0 0 0 128 160 Z M 128 107 A 11 11 0 1 0 128 128 A 11 11 0 0 0 128 107 Z M 128 149 A 11 11 0 1 0 128 171 A 11 11 0 0 0 128 149 Z" fill="none" stroke="none" stroke-width="0" opacity="1.000"/></svg>