<svg xmlns="http://www.w3.org/2000/svg" viewBox="0 0 256 256" width="256" height="256"><rect x="38" y="77" width="179" height="102" rx="0" ry="0" fill="#FFFFFF" stroke="none" stroke-width="0" opacity="1.000"/><circle cx="128" cy="141" r="13" fill="#FF69B4" stroke="none" stroke-width="0" opacity="1.000"/><path d="M 128 141 L 128 141 C 128 141 128 141 128 141 Z" fill="#8B4513" stroke="none" stroke-width="0" opacity="1.000"/><path d="M 128 141 L 128 141 C 128 141 128 141 128 141 Z" fill="#8B4513" stroke="none" stroke-width="0" opacity="1.000"/><path d="M 128 141 L 128 141 C 128 141 128 141 128 141 Z" fill="#8B4513" stroke="none" stroke-width="0" opacity="1.000"/><path d="M 128 141 L 128 141 C 128 141 128 141 128 141 Z" fill="#8B4513" stroke="none" stroke-width="0" opacity="1.000"/><path d="M 128 141 L 128 141 C 128 141 128 141 128 141 Z" fill="#8B4513" stroke="none" stroke-width="0" opacity="1.000"/><path d="M 128 141 L 128 141 C 128 141 128 141 128 141 Z" fill="#8B4513" stroke="none" stroke-width="0" opacity="1.000"/><path d="M 128 141 L 128 141 C 128 141 128 141 128 141 Z" fill="#8B4513" stroke="none" stroke-width="0" opacity="1.000"/><path d="M 128 141 L 128 141 C 128 141 128 141 128 141 Z" fill="#8B4513" stroke="none" stroke-width="0" opacity="1.000"/></svg>