<svg xmlns="http://www.w3.org/2000/svg" viewBox="0 0 256 256" width="256" height="256"><path d="M 203 43 L 53 43 C 47 43 43 47 43 53 L 43 203 C 43 209 47 213 53 213 L 203 213 C 209 213 213 209 213 203 L 213 53 C 213 47 209 43 203 43 Z M 181 117 L 139 117 L 139 75 C 139 69 135 65 129 65 C 123 65 119 69 119 75 L 119 117 L 77 117 C 71 117 67 121 67 127 C 67 133 71 137 77 137 L 119 137 L 119 179 C 119 185 123 189 129 189 C 135 189 139 185 139 179 L 139 137 L 181 137 C 187 137 191 133 191 127 C 191 121 187 117 181 117 Z" fill="#000000" stroke="none" stroke-width="0" opacity="1.000"/></svg>