<svg xmlns="http://www.w3.org/2000/svg" viewBox="0 0 256 256" width="256" height="256"><path d="M 32 48 L 224 48 C 230 48 235 53 235 59 L 235 75 C 235 81 230 86 224 86 L 32 86 C 26 86 21 81 21 75 L 21 59 C 21 53 26 48 32 48 Z M 32 102 L 224 102 C 230 102 235 107 235 113 L 235 129 C 235 135 230 140 224 140 L 32 140 C 26 140 21 135 21 129 L 21 113 C 21 107 26 102 32 102 Z M 32 156 L 224 156 C 230 156 235 161 235 167 L 235 183 C 235 189 230 194 224 194 L 32 194 C 26 194 21 189 21 183 L 21 167 C 21 161 26 156 32 156 Z M 32 210 L 224 210 C 230 210 235 215 235 221 L 235 237 C 235 243 230 248 224 248 L 32 248 C 26 248 21 243 21 237 L 21 221 C 21 215 26 210 32 210 Z" fill="none" stroke="none" stroke-width="0" opacity="1.000"/></svg>