<svg xmlns="http://www.w3.org/2000/svg" viewBox="0 0 256 256" width="256" height="256"><path d="M 230 47 L 230 209 A 18 18 0 0 1 212 227 L 44 227 A 18 18 0 0 1 26 209 L 26 47 A 18 18 0 0 1 44 29 L 212 29 A 18 18 0 0 1 230 47 Z M 181 101 L 139 101 L 139 143 L 181 143 L 181 101 Z M 107 101 L 65 101 L 65 143 L 107 143 L 107 101 Z M 230 47 L 230 209 A 18 18 0 0 1 212 227 L 44 227 A 18 18 0 0 1 26 209 L 26 47 A 18 18 0 0 1 44 29 L 212 29 A 18 18 0 0 1 230 47 Z" fill="#808080" stroke="none" stroke-width="0" opacity="1.000"/></svg>