<svg xmlns="http://www.w3.org/2000/svg" viewBox="0 0 256 256" width="256" height="256"><path d="M 230 98 L 147 2 A 10 10 0 0 0 139 0 L 117 0 A 10 10 0 0 0 109 2 L 26 98 A 10 10 0 0 0 26 114 L 109 190 A 10 10 0 0 0 117 192 L 139 192 A 10 10 0 0 0 147 190 L 230 114 A 10 10 0 0 0 230 98 Z M 128 176 L 128 216 L 136 216 L 136 176 L 128 176 Z M 186 114 L 186 136 L 166 136 L 166 114 L 186 114 Z M 186 152 L 186 176 L 166 176 L 166 152 L 186 152 Z M 186 190 L 186 216 L 166 216 L 166 190 L 186 190 Z" fill="#000000" stroke="none" stroke-width="0" opacity="1.000"/></svg>