<svg xmlns="http://www.w3.org/2000/svg" viewBox="0 0 256 256" width="256" height="256"><path d="M 208 32 L 48 32 C 37 32 29 40 29 51 L 29 205 C 29 216 37 224 48 224 L 208 224 C 219 224 227 216 227 205 L 227 51 C 227 40 219 32 208 32 Z M 181 160 L 139 160 L 139 181 L 117 181 L 117 160 L 75 160 L 75 149 L 117 149 L 117 128 L 139 128 L 139 149 L 181 149 L 181 160 Z M 181 117 L 139 117 L 139 96 L 117 96 L 117 117 L 75 117 L 75 107 L 117 107 L 117 85 L 139 85 L 139 107 L 181 107 L 181 117 Z M 181 75 L 139 75 L 139 53 L 117 53 L 117 75 L 75 75 L 75 64 L 117 64 L 117 43 L 139 43 L 139 64 L 181 64 L 181 75 Z" fill="none" stroke="none" stroke-width="0" opacity="1.000"/></svg>