<svg xmlns="http://www.w3.org/2000/svg" viewBox="0 0 256 256" width="256" height="256"><path d="M 197 48 L 59 48 C 50 48 43 55 43 64 L 43 192 C 43 201 50 208 59 208 L 197 208 C 206 208 213 201 213 192 L 213 64 C 213 55 206 48 197 48 Z M 197 192 L 59 192 L 59 64 L 197 64 L 197 192 Z" fill="#FF8C00" stroke="none" stroke-width="0" opacity="1.000"/><path d="M 128 160 A 8 8 0 0 1 120 152 L 120 104 A 8 8 0 0 1 136 104 L 136 152 A 8 8 0 0 1 128 160 Z M 128 120 A 8 8 0 0 1 120 112 L 120 88 A 8 8 0 0 1 136 88 L 136 112 A 8 8 0 0 1 128 120 Z M 128 80 A 8 8 0 0 1 120 72 L 120 48 A 8 8 0 0 1 136 48 L 136 72 A 8 8 0 0 1 128 80 Z" fill="#FFFFFF" stroke="none" stroke-width="0" opacity="1.000"/><path d="M 128 160 A 8 8 0 0 1 120 152 L 120 104 A 8 8 0 0 1 136 104 L 136 152 A 8 8 0 0 1 128 160 Z M 128 120 A 8 8 0 0 1 120 112 L 120 88 A 8 8 0 0 1 136 88 L 136 112 A 8 8 0 0 1 128 120 Z M 128 80 A 8 8 0 0 1 120 72 L 120 48 A 8 8 0 0 1 136 48 L 136 72 A 8 8 0 0 1 128 80 Z" fill="#FFFFFF" stroke="none" stroke-width="0" opacity="1.000"/></svg>