<svg xmlns="http://www.w3.org/2000/svg" viewBox="0 0 256 256" width="256" height="256"><path d="M 197 34 L 188 34 C 188 34 188 34 188 34 L 188 34 L 188 34 Z" fill="#FFFFFF" stroke="none" stroke-width="0" opacity="1.000"/><path d="M 188 34 L 188 34 C 188 34 188 34 188 34 L 188 34 L 188 34 Z" fill="#FFFFFF" stroke="none" stroke-width="0" opacity="1.000"/><path d="M 188 34 L 188 34 C 188 34 188 34 188 34 L 188 34 L 188 34 Z" fill="#FFFFFF" stroke="none" stroke-width="0" opacity="1.000"/><path d="M 188 34 L 188 34 C 188 34 188 34 188 34 L 188 34 L 188 34 Z" fill="#FFFFFF" stroke="none" stroke-width="0" opacity="1.000"/><path d="M 188 34 L 188 34 C 188 34 188 34 188 34 L 188 34 L 188 34 Z" fill="#FFFFFF" stroke="none" stroke-width="0" opacity="1.000"/><path d="M 188 34 L 188 34 C 188 34 188 34 188 34 L 188 34 L 188 34 Z" fill="#FFFFFF" stroke="none" stroke-width="0" opacity="1.000"/><path d="M 188 34 L 188 34 C 188 34 188 34 188 34 L 188 34 L 188 34 Z" fill="#FFFFFF" stroke="none" stroke-width="0" opacity="1.000"/><path d="M 188 34 L 188 34 C 188 34 188 34 188 34 L 188 34 L 188 34 Z" fill="#FFFFFF" stroke="none" stroke-width="0" opacity="1.000"/><path d="M 188 34 L 188 34 C 188 34 188 34 188 34 L 188 34 L 188 34 Z" fill="#FFFFFF" stroke="none" stroke-width="0" opacity="1.000"/><path d="M 188 34 L 188 34 C 188 34 188 34 188 34 L 188 34 L 188 34 Z" fill="#FFFFFF" stroke="none" stroke-width="0" opacity="1.000"/></svg>