<svg xmlns="http://www.w3.org/2000/svg" viewBox="0 0 256 256" width="256" height="256"><path d="M 37 48 L 219 48 C 227 48 232 53 232 60 L 232 196 C 232 204 227 209 219 209 L 37 209 C 29 209 24 204 24 196 L 24 60 C 24 53 29 48 37 48 Z M 128 128 A 8 8 0 0 1 136 136 L 136 160 A 8 8 0 0 1 120 160 L 120 136 A 8 8 0 0 1 128 128 Z M 128 184 A 8 8 0 0 1 136 192 L 136 216 A 8 8 0 0 1 120 216 L 120 192 A 8 8 0 0 1 128 184 Z M 128 144 A 8 8 0 0 1 136 152 L 136 176 A 8 8 0 0 1 120 176 L 120 152 A 8 8 0 0 1 128 144 Z" fill="#1E90FF" stroke="none" stroke-width="0" opacity="1.000"/></svg>