<svg xmlns="http://www.w3.org/2000/svg" viewBox="0 0 256 256" width="256" height="256"><path d="M 128 0 C 57 0 0 57 0 128 C 0 199 57 255 128 255 C 199 255 255 199 255 128 C 255 57 199 0 128 0 Z M 128 240 C 66 240 16 190 16 128 C 16 66 66 16 128 16 C 190 16 240 66 240 128 C 240 190 190 240 128 240 Z" fill="#FFFFFF" stroke="none" stroke-width="0" opacity="1.000"/><path d="M 128 160 A 12 12 0 0 1 116 148 L 148 116 A 12 12 0 0 1 160 128 A 12 12 0 0 1 148 140 L 128 160 Z" fill="#FF8C00" stroke="none" stroke-width="0" opacity="1.000"/><path d="M 128 160 A 12 12 0 0 1 116 148 L 148 116 A 12 12 0 0 1 160 128 A 12 12 0 0 1 148 140 L 128 160 Z" fill="#FF8C00" stroke="none" stroke-width="0" opacity="1.000"/></svg>