<svg xmlns="http://www.w3.org/2000/svg" viewBox="0 0 256 256" width="256" height="256"><path d="M 197 40 L 59 40 C 48 40 39 49 39 60 L 39 196 C 39 207 48 216 59 216 L 197 216 C 208 216 217 207 217 196 L 217 60 C 217 49 208 40 197 40 Z M 197 196 L 59 196 L 59 60 L 197 60 L 197 196 Z" fill="#FFFFFF" stroke="none" stroke-width="0" opacity="1.000"/><path d="M 128 160 A 8 8 0 0 1 120 152 L 120 104 A 8 8 0 0 1 136 104 L 136 152 A 8 8 0 0 1 128 160 Z M 128 120 A 8 8 0 0 1 120 112 L 120 80 A 8 8 0 0 1 136 80 L 136 112 A 8 8 0 0 1 128 120 Z" fill="#FFFFFF" stroke="none" stroke-width="0" opacity="1.000"/><path d="M 181 128 A 8 8 0 0 1 173 120 L 173 88 A 8 8 0 0 1 189 88 L 189 120 A 8 8 0 0 1 181 128 Z M 75 128 A 8 8 0 0 1 67 120 L 67 88 A 8 8 0 0 1 83 88 L 83 120 A 8 8 0 0 1 75 128 Z" fill="#FFFFFF" stroke="none" stroke-width="0" opacity="1.000"/></svg>