<svg xmlns="http://www.w3.org/2000/svg" viewBox="0 0 256 256" width="256" height="256"><path d="M 197 34 C 180 17 154 17 137 34 L 137 34 A 10 10 0 0 0 128 24 A 10 10 0 0 0 119 34 L 119 34 C 102 17 76 17 59 34 C 42 51 34 76 34 102 C 34 128 42 153 59 170 C 76 187 102 187 119 170 L 119 170 C 137 187 163 187 180 170 C 197 153 205 128 205 102 C 205 76 197 51 180 34 C 163 17 137 17 119 34 L 119 34 C 102 17 76 17 59 34 Z M 128 166 C 107 166 89 148 89 127 C 89 106 107 88 128 88 C 149 88 167 106 167 127 C 167 148 149 166 128 166 Z M 128 102 C 115 102 105 112 105 127 C 105 142 115 152 128 152 C 141 152 151 142 151 127 C 151 112 141 102 128 102 Z M 128 170 C 115 170 105 159 105 146 C 105 133 115 123 128 123 C 141 123 151 133 151 146 C 151 159 141 170 128 170 Z" fill="#1E90FF" stroke="none" stroke-width="0" opacity="1.000"/></svg>