<svg xmlns="http://www.w3.org/2000/svg" viewBox="0 0 256 256" width="256" height="256"><path d="M 197 34 L 59 34 C 50 34 43 41 43 50 L 43 206 C 43 215 50 222 59 222 L 197 222 C 206 222 213 215 213 206 L 213 50 C 213 41 206 34 197 34 Z M 181 206 C 181 210 178 213 174 213 L 82 213 C 78 213 75 210 75 206 L 75 50 C 75 46 78 43 82 43 L 174 43 C 178 43 181 46 181 50 L 181 206 Z M 128 160 L 101 160 L 101 133 L 128 133 L 128 160 Z M 128 117 L 101 117 L 101 90 L 128 90 L 128 117 Z M 128 85 L 101 85 L 101 58 L 128 58 L 128 85 Z M 165 160 L 138 160 L 138 133 L 165 133 L 165 160 Z M 165 117 L 138 117 L 138 90 L 165 90 L 165 117 Z M 165 85 L 138 85 L 138 58 L 165 58 L 165 85 Z" fill="#000000" stroke="none" stroke-width="0" opacity="1.000"/></svg>