<svg xmlns="http://www.w3.org/2000/svg" viewBox="0 0 256 256" width="256" height="256"><path d="M 128 0 C 57 0 0 57 0 128 C 0 199 57 255 128 255 C 199 255 255 199 255 128 C 255 57 199 0 128 0 Z M 134 192 L 122 192 A 10 10 0 0 1 112 182 L 112 160 A 10 10 0 0 1 122 150 L 134 150 A 10 10 0 0 1 144 160 L 144 182 A 10 10 0 0 1 134 192 Z M 128 16 A 112 112 0 1 0 128 240 A 112 112 0 0 0 128 16 Z M 128 128 A 10 10 0 1 1 138 118 A 10 10 0 0 1 128 128 Z M 128 108 A 10 10 0 1 1 138 98 A 10 10 0 0 1 128 108 Z" fill="#000000" stroke="none" stroke-width="0" opacity="1.000"/></svg>