<svg xmlns="http://www.w3.org/2000/svg" viewBox="0 0 256 256" width="256" height="256"><path d="M 203 48 L 197 48 C 194 48 192 50 192 53 L 192 203 C 192 206 194 208 197 208 L 203 208 C 206 208 208 206 208 203 L 208 53 C 208 50 206 48 203 48 Z M 181 203 A 11 11 0 0 1 171 213 L 85 213 A 11 11 0 0 1 75 203 L 75 53 A 11 11 0 0 1 85 43 L 171 43 A 11 11 0 0 1 181 53 L 181 203 Z M 181 64 L 181 53 A 11 11 0 0 0 171 43 L 85 43 A 11 11 0 0 0 75 53 L 75 64 L 181 64 Z M 181 107 L 181 96 L 75 96 L 75 107 L 181 107 Z M 181 149 L 181 139 L 75 139 L 75 149 L 181 149 Z M 181 192 L 181 181 L 75 181 L 75 192 L 181 192 Z M 181 128 L 181 117 L 75 117 L 75 128 L 181 128 Z M 181 171 L 181 160 L 75 160 L 75 171 L 181 171 Z M 181 155 L 181 144 L 75 144 L 75 155 L 181 155 Z M 181 131 L 181 120 L 75 120 L 75 131 L 181 131 Z M 181 105 L 181 94 L 75 94 L 75 105 L 181 105 Z M 181 80 L 181 69 L 75 69 L 75 80 L 181 80 Z M 181 56 L 181 45 L 75 45 L 75 56 L 181 56 Z M 181 245 L 75 245 A 11 11 0 0 1 64 235 L 64 21 A 11 11 0 0 1 75 11 L 181 11 A 11 11 0 0 1 192 21 L 192 235 A 11 11 0 0 1 181 245 Z" fill="#000000" stroke="none" stroke-width="0" opacity="1.000"/></svg>