<svg xmlns="http://www.w3.org/2000/svg" viewBox="0 0 256 256" width="256" height="256"><path d="M 128 0 C 57 0 0 57 0 128 C 0 199 57 255 128 255 C 199 255 255 199 255 128 C 255 57 199 0 128 0 Z M 128 234 C 69 234 22 187 22 128 C 22 69 69 22 128 22 C 187 22 234 69 234 128 C 234 187 187 234 128 234 Z M 179 100 L 128 151 L 77 100 A 11 11 0 0 0 64 113 L 113 162 A 11 11 0 0 0 128 162 A 11 11 0 0 0 128 147 L 179 98 A 11 11 0 0 0 179 100 Z" fill="none" stroke="none" stroke-width="0" opacity="1.000"/></svg>