<svg xmlns="http://www.w3.org/2000/svg" viewBox="0 0 256 256" width="256" height="256"><path d="M 107 32 L 149 32 C 158 32 165 39 165 48 L 165 107 C 165 116 158 123 149 123 L 107 123 C 98 123 91 116 91 107 L 91 48 C 91 39 98 32 107 32 Z M 107 139 L 149 139 C 158 139 165 146 165 155 L 165 213 C 165 222 158 229 149 229 L 107 229 C 98 229 91 222 91 213 L 91 155 C 91 146 98 139 107 139 Z M 107 181 L 149 181 C 158 181 165 188 165 197 L 165 235 C 165 244 158 251 149 251 L 107 251 C 98 251 91 244 91 235 L 91 197 C 91 188 98 181 107 181 Z M 107 107 L 149 107 C 158 107 165 114 165 123 L 165 181 C 165 190 158 197 149 197 L 107 197 C 98 197 91 190 91 181 L 91 123 C 91 114 98 107 107 107 Z" fill="#000000" stroke="none" stroke-width="0" opacity="1.000"/></svg>