<svg xmlns="http://www.w3.org/2000/svg" viewBox="0 0 256 256" width="256" height="256"><path d="M 203 48 L 53 48 C 47 48 43 52 43 58 L 43 203 C 43 209 47 213 53 213 L 203 213 C 209 213 213 209 213 203 L 213 58 C 213 52 209 48 203 48 Z M 128 160 L 128 192 L 107 192 L 107 160 L 128 160 Z M 149 160 L 149 192 L 128 192 L 128 160 L 149 160 Z M 171 160 L 171 192 L 149 192 L 149 160 L 171 160 Z M 192 160 L 192 192 L 171 192 L 171 160 L 192 160 Z M 128 117 L 128 149 L 107 149 L 107 117 L 128 117 Z M 149 117 L 149 149 L 128 149 L 128 117 L 149 117 Z M 171 117 L 171 149 L 149 149 L 149 117 L 171 117 Z M 192 117 L 192 149 L 171 149 L 171 117 L 192 117 Z" fill="#000000" stroke="none" stroke-width="0" opacity="1.000"/></svg>