<svg xmlns="http://www.w3.org/2000/svg" viewBox="0 0 256 256" width="256" height="256"><path d="M 203 48 L 53 48 C 47 48 43 52 43 58 L 43 203 C 43 209 47 213 53 213 L 203 213 C 209 213 213 209 213 203 L 213 58 C 213 52 209 48 203 48 Z M 181 128 L 75 128 C 71 128 67 132 67 136 C 67 140 71 144 75 144 L 181 144 C 185 144 189 140 189 136 C 189 132 185 128 181 128 Z M 181 176 L 75 176 C 71 176 67 180 67 184 C 67 188 71 192 75 192 L 181 192 C 185 192 189 188 189 184 C 189 180 185 176 181 176 Z" fill="#808080" stroke="none" stroke-width="0" opacity="1.000"/></svg>