<svg xmlns="http://www.w3.org/2000/svg" viewBox="0 0 256 256" width="256" height="256"><path d="M 128 0 C 57 0 0 57 0 128 C 0 199 57 255 128 255 C 199 255 255 199 255 128 C 255 57 199 0 128 0 Z M 134 186 A 10 10 0 0 1 122 186 L 112 176 A 10 10 0 0 1 112 160 L 122 150 A 10 10 0 0 1 138 150 L 148 160 A 10 10 0 0 1 148 176 L 138 186 A 10 10 0 0 1 134 186 Z M 128 112 A 16 16 0 1 0 128 144 A 16 16 0 0 0 128 112 Z M 128 136 A 40 40 0 1 1 128 216 A 40 40 0 0 1 128 136 Z" fill="#000000" stroke="none" stroke-width="0" opacity="1.000"/></svg>