<svg xmlns="http://www.w3.org/2000/svg" viewBox="0 0 256 256" width="256" height="256"><path d="M 32 48 A 16 16 0 0 1 48 32 L 96 32 A 16 16 0 0 1 112 48 L 112 96 A 16 16 0 0 1 96 112 L 48 112 A 16 16 0 0 1 32 96 L 32 48 Z M 160 48 A 16 16 0 0 1 176 32 L 224 32 A 16 16 0 0 1 240 48 L 240 96 A 16 16 0 0 1 224 112 L 176 112 A 16 16 0 0 1 160 96 L 160 48 Z M 32 224 A 16 16 0 0 1 48 208 L 96 208 A 16 16 0 0 1 112 224 L 112 240 A 16 16 0 0 1 96 255 L 48 255 A 16 16 0 0 1 32 240 L 32 224 Z M 160 224 A 16 16 0 0 1 176 208 L 224 208 A 16 16 0 0 1 240 224 L 240 240 A 16 16 0 0 1 224 255 L 176 255 A 16 16 0 0 1 160 240 L 160 224 Z" fill="#808080" stroke="none" stroke-width="0" opacity="1.000"/></svg>