<svg xmlns="http://www.w3.org/2000/svg" viewBox="0 0 256 256" width="256" height="256"><path d="M 107 32 L 149 32 C 153 32 156 35 156 38 C 156 42 153 45 149 45 L 107 45 C 103 45 100 42 100 38 C 100 35 103 32 107 32 Z M 107 117 L 149 117 C 153 117 156 120 156 124 C 156 128 153 131 149 131 L 107 131 C 103 131 100 128 100 124 C 100 120 103 117 107 117 Z M 107 203 L 149 203 C 153 203 156 206 156 210 C 156 214 153 217 149 217 L 107 217 C 103 217 100 214 100 210 C 100 206 103 203 107 203 Z" fill="none" stroke="none" stroke-width="0" opacity="1.000"/></svg>