<svg xmlns="http://www.w3.org/2000/svg" viewBox="0 0 256 256" width="256" height="256"><path d="M 208 32 L 48 32 C 37 32 29 40 29 51 L 29 195 C 29 206 37 214 48 214 L 208 214 C 219 214 227 206 227 195 L 227 51 C 227 40 219 32 208 32 Z M 181 195 C 181 200 177 204 172 204 L 84 204 C 79 204 75 200 75 195 L 75 107 L 181 107 L 181 195 Z M 181 85 L 75 85 L 75 51 C 75 46 79 42 84 42 L 172 42 C 177 42 181 46 181 51 L 181 85 Z M 160 149 L 128 181 L 96 149 L 107 139 L 128 160 L 149 139 L 160 149 Z" fill="#000000" stroke="none" stroke-width="0" opacity="1.000"/></svg>