<svg xmlns="http://www.w3.org/2000/svg" viewBox="0 0 256 256" width="256" height="256"><path d="M 208 32 L 48 32 C 37 32 29 40 29 51 L 29 205 C 29 216 37 224 48 224 L 208 224 C 219 224 227 216 227 205 L 227 51 C 227 40 219 32 208 32 Z M 192 192 L 64 192 L 64 171 L 192 171 L 192 192 Z M 192 149 L 64 149 L 64 128 L 192 128 L 192 149 Z M 192 107 L 64 107 L 64 85 L 192 85 L 192 107 Z M 192 75 L 64 75 L 64 53 L 192 53 L 192 75 Z M 192 192 L 192 171 L 128 171 L 128 192 L 192 192 Z M 192 149 L 192 128 L 128 128 L 128 149 L 192 149 Z M 192 107 L 192 85 L 128 85 L 128 107 L 192 107 Z M 192 75 L 192 53 L 128 53 L 128 75 L 192 75 Z" fill="none" stroke="none" stroke-width="0" opacity="1.000"/></svg>