<svg xmlns="http://www.w3.org/2000/svg" viewBox="0 0 256 256" width="256" height="256"><path d="M 197 184 C 197 184 197 184 197 184 L 197 184 A 30 30 0 0 0 197 184 Z M 128 21 C 142 21 155 27 165 37 C 175 47 181 60 181 74 C 181 88 175 101 165 111 C 155 121 142 127 128 127 C 114 127 101 121 91 111 C 81 101 75 88 75 74 C 75 60 81 47 91 37 C 101 27 114 21 128 21 Z M 128 117 C 138 117 147 112 154 105 C 161 98 165 89 165 74 C 165 59 159 45 149 35 C 139 25 127 21 128 21 C 129 21 139 25 149 35 C 159 45 165 59 165 74 C 165 89 161 98 154 105 C 147 112 138 117 128 117 Z" fill="#000000" stroke="none" stroke-width="0" opacity="1.000"/></svg>