<svg xmlns="http://www.w3.org/2000/svg" viewBox="0 0 256 256" width="256" height="256"><path d="M 197 104 L 138 104 C 134 104 131 107 131 111 L 131 165 C 131 169 134 172 138 172 L 197 172 C 201 172 204 169 204 165 L 204 111 C 204 107 201 104 197 104 Z M 128 149 L 169 149 L 169 117 L 128 117 L 128 149 Z M 128 133 L 169 133 L 169 123 L 128 123 L 128 133 Z M 128 117 L 169 117 L 169 107 L 128 107 L 128 117 Z M 128 91 L 169 91 L 169 81 L 128 81 L 128 91 Z M 128 65 L 169 65 L 169 55 L 128 55 L 128 65 Z M 128 40 L 169 40 L 169 30 L 128 30 L 128 40 Z M 128 149 L 169 149 L 169 139 L 128 139 L 128 149 Z M 128 133 L 169 133 L 169 123 L 128 123 L 128 133 Z M 128 117 L 169 117 L 169 107 L 128 107 L 128 117 Z M 128 91 L 169 91 L 169 81 L 128 81 L 128 91 Z M 128 65 L 169 65 L 169 55 L 128 55 L 128 65 Z M 128 40 L 169 40 L 169 30 L 128 30 L 128 40 Z" fill="#000000" stroke="none" stroke-width="0" opacity="1.000"/></svg>