<svg xmlns="http://www.w3.org/2000/svg" viewBox="0 0 256 256" width="256" height="256"><path d="M 128 0 C 147 0 165 9 177 21 L 177 21 L 177 21 A 107 107 0 0 1 128 0 Z M 128 11 C 114 11 101 18 91 28 L 91 28 L 91 28 A 96 96 0 0 0 128 11 Z" fill="#808080" stroke="none" stroke-width="0" opacity="1.000"/><path d="M 128 245 C 124 245 120 244 116 242 L 116 242 L 116 242 A 107 107 0 0 1 128 255 C 132 255 136 255 140 254 L 140 254 L 140 254 A 107 107 0 0 1 128 245 Z M 128 255 C 124 255 120 255 116 254 L 116 254 L 116 254 A 107 107 0 0 1 128 245 C 132 245 136 245 140 246 L 140 246 L 140 246 A 107 107 0 0 1 128 255 Z" fill="#000000" stroke="none" stroke-width="0" opacity="1.000"/><path d="M 128 11 C 114 11 101 18 91 28 L 91 28 L 91 28 A 96 96 0 0 0 128 11 Z M 128 11 C 114 11 101 18 91 28 L 91 28 L 91 28 A 96 96 0 0 0 128 11 Z" fill="#000000" stroke="none" stroke-width="0" opacity="1.000"/></svg>