<svg xmlns="http://www.w3.org/2000/svg" viewBox="0 0 256 256" width="256" height="256"><path d="M 128 0 C 57 0 0 57 0 128 C 0 199 57 255 128 255 C 199 255 255 199 255 128 C 255 57 199 0 128 0 Z M 128 234 C 71 234 22 185 22 128 C 22 71 71 22 128 22 C 185 22 234 71 234 128 C 234 185 185 234 128 234 Z M 128 213 A 11 11 0 0 1 117 203 L 117 160 A 11 11 0 0 1 139 160 L 139 203 A 11 11 0 0 1 128 213 Z M 128 149 A 11 11 0 0 1 117 139 L 117 117 A 11 11 0 0 1 139 117 L 139 139 A 11 11 0 0 1 128 149 Z" fill="none" stroke="none" stroke-width="0" opacity="1.000"/></svg>