<svg xmlns="http://www.w3.org/2000/svg" viewBox="0 0 256 256" width="256" height="256"><path d="M 208 32 L 48 32 C 37 32 29 40 29 51 L 29 195 C 29 206 37 214 48 214 L 208 214 C 219 214 227 206 227 195 L 227 51 C 227 40 219 32 208 32 Z M 181 195 C 181 200 177 204 172 204 L 84 204 C 79 204 75 200 75 195 L 75 171 C 75 166 79 162 84 162 L 172 162 C 177 162 181 166 181 171 L 181 195 Z M 181 141 C 181 146 177 150 172 150 L 84 150 C 79 150 75 146 75 141 L 75 117 C 75 112 79 108 84 108 L 172 108 C 177 108 181 112 181 117 L 181 141 Z M 181 87 C 181 92 177 96 172 96 L 84 96 C 79 96 75 92 75 87 L 75 63 C 75 58 79 54 84 54 L 172 54 C 177 54 181 58 181 63 L 181 87 Z" fill="#000000" stroke="none" stroke-width="0" opacity="1.000"/></svg>