<svg xmlns="http://www.w3.org/2000/svg" viewBox="0 0 256 256" width="256" height="256"><path d="M 32 48 L 32 208 C 32 217 39 224 48 224 L 208 224 C 217 224 224 217 224 208 L 224 48 C 224 39 217 32 208 32 L 48 32 C 39 32 32 39 32 48 Z M 160 160 L 160 208 C 160 217 167 224 176 224 L 208 224 C 217 224 224 217 224 208 L 224 160 C 224 151 217 144 208 144 L 176 144 C 167 144 160 151 160 160 Z M 48 160 L 48 208 C 48 217 55 224 64 224 L 96 224 C 105 224 112 217 112 208 L 112 160 C 112 151 105 144 96 144 L 64 144 C 55 144 48 151 48 160 Z M 160 48 L 160 96 C 160 105 167 112 176 112 L 208 112 C 217 112 224 105 224 96 L 224 48 C 224 39 217 32 208 32 L 176 32 C 167 32 160 39 160 48 Z" fill="#808080" stroke="none" stroke-width="0" opacity="1.000"/></svg>