<svg xmlns="http://www.w3.org/2000/svg" viewBox="0 0 256 256" width="256" height="256"><path d="M 179 184 L 107 184 C 103 184 100 181 100 177 L 100 105 C 100 101 103 98 107 98 L 179 98 C 183 98 186 101 186 105 L 186 177 C 186 181 183 184 179 184 Z M 107 105 L 179 105 L 179 177 L 107 177 L 107 105 Z" fill="#DC143C" stroke="none" stroke-width="0" opacity="1.000"/><path d="M 179 184 L 107 184 C 103 184 100 181 100 177 L 100 105 C 100 101 103 98 107 98 L 179 98 C 183 98 186 101 186 105 L 186 177 C 186 181 183 184 179 184 Z M 107 105 L 179 105 L 179 177 L 107 177 L 107 105 Z" fill="#000000" stroke="none" stroke-width="0" opacity="1.000"/><path d="M 179 184 L 107 184 C 103 184 100 181 100 177 L 100 105 C 100 101 103 98 107 98 L 179 98 C 183 98 186 101 186 105 L 186 177 C 186 181 183 184 179 184 Z M 107 105 L 179 105 L 179 177 L 107 177 L 107 105 Z" fill="#000000" stroke="none" stroke-width="0" opacity="1.000"/></svg>