<svg xmlns="http://www.w3.org/2000/svg" viewBox="0 0 256 256" width="256" height="256"><path d="M 128 0 C 57 0 0 57 0 128 C 0 199 57 255 128 255 C 199 255 255 199 255 128 C 255 57 199 0 128 0 Z M 128 245 C 63 245 11 193 11 128 C 11 63 63 11 128 11 C 193 11 245 63 245 128 C 245 193 193 245 128 245 Z" fill="#228B22" stroke="none" stroke-width="0" opacity="1.000"/><path d="M 128 160 A 32 32 0 1 0 128 96 A 32 32 0 0 0 128 160 Z M 128 149 A 11 11 0 1 1 128 128 A 11 11 0 0 1 128 149 Z" fill="#DC143C" stroke="none" stroke-width="0" opacity="1.000"/><path d="M 128 160 A 32 32 0 1 0 128 96 A 32 32 0 0 0 128 160 Z M 128 149 A 11 11 0 1 1 128 128 A 11 11 0 0 1 128 149 Z M 128 160 A 32 32 0 1 0 128 96 A 32 32 0 0 0 128 160 Z M 128 149 A 11 11 0 1 1 128 128 A 11 11 0 0 1 128 149 Z" fill="#228B22" stroke="none" stroke-width="0" opacity="1.000"/></svg>