<svg xmlns="http://www.w3.org/2000/svg" viewBox="0 0 256 256" width="256" height="256"><path d="M 197 83 C 194 70 183 60 170 60 L 128 60 L 128 32 C 128 26 123 21 117 21 C 111 21 106 26 106 32 L 106 60 L 64 60 C 51 60 40 71 40 84 C 40 97 51 108 64 108 L 106 108 L 106 136 C 106 142 111 147 117 147 C 123 147 128 142 128 136 L 128 108 L 170 108 C 183 108 194 97 194 84 C 194 71 183 60 170 60 Z M 170 128 L 128 128 L 128 96 L 170 96 C 176 96 181 91 181 84 C 181 77 176 72 170 72 Z M 170 152 L 128 152 L 128 120 L 170 120 C 176 120 181 115 181 108 C 181 101 176 96 170 96 Z M 170 176 L 128 176 L 128 144 L 170 144 C 176 144 181 139 181 132 C 181 125 176 120 170 120 Z M 170 200 L 128 200 L 128 168 L 170 168 C 176 168 181 163 181 156 C 181 149 176 144 170 144 Z M 170 224 L 128 224 L 128 200 L 170 200 C 176 200 181 195 181 188 C 181 181 176 176 170 176 Z M 170 248 C 176 248 181 243 181 236 C 181 229 176 224 170 224 C 163 224 158 229 158 236 C 158 243 163 248 170 248 Z" fill="none" stroke="none" stroke-width="0" opacity="1.000"/></svg>