<svg xmlns="http://www.w3.org/2000/svg" viewBox="0 0 256 256" width="256" height="256"><path d="M 203 48 L 192 48 L 192 37 A 11 11 0 0 0 181 27 L 75 27 A 11 11 0 0 0 64 37 L 64 48 L 53 48 A 11 11 0 0 0 43 59 L 43 213 A 11 11 0 0 0 53 224 L 203 224 A 11 11 0 0 0 213 213 L 213 59 A 11 11 0 0 0 203 48 Z M 181 107 L 75 107 A 11 11 0 0 0 64 117 L 64 128 L 192 128 L 192 117 A 11 11 0 0 0 181 107 Z M 181 149 L 75 149 A 11 11 0 0 0 64 159 L 64 171 L 192 171 L 192 159 A 11 11 0 0 0 181 149 Z M 181 192 L 75 192 A 11 11 0 0 0 64 203 L 64 213 A 11 11 0 0 0 75 224 L 181 224 A 11 11 0 0 0 192 213 L 192 203 A 11 11 0 0 0 181 192 Z" fill="#000000" stroke="none" stroke-width="0" opacity="1.000"/></svg>