<svg xmlns="http://www.w3.org/2000/svg" viewBox="0 0 256 256" width="256" height="256"><path d="M 37 48 L 219 48 C 220 48 221 49 221 50 L 221 196 C 221 197 220 198 219 198 L 37 198 C 36 198 35 197 35 196 L 35 50 C 35 49 36 48 37 48 Z M 219 182 L 37 182 C 36 182 35 181 35 180 L 35 56 C 35 55 36 54 37 54 L 219 54 C 220 54 221 55 221 56 L 221 180 C 221 181 220 182 219 182 Z M 128 100 L 219 100 C 220 100 221 101 221 102 L 221 148 C 221 149 220 150 219 150 L 128 150 C 127 150 126 149 126 148 L 126 102 C 126 101 127 100 128 100 Z M 219 144 L 128 144 C 127 144 126 143 126 142 L 126 106 C 126 105 127 104 128 104 L 219 104 C 220 104 221 105 221 106 L 221 142 C 221 143 220 144 219 144 Z M 128 182 L 219 182 C 220 182 221 183 221 184 L 221 230 C 221 231 220 232 219 232 L 128 232 C 127 232 126 231 126 230 L 126 184 C 126 183 127 182 128 182 Z M 219 226 L 128 226 C 127 226 126 225 126 224 L 126 188 C 126 187 127 186 128 186 L 219 186 C 220 186 221 187 221 188 L 221 224 C 221 225 220 226 219 226 Z" fill="#000000" stroke="none" stroke-width="0" opacity="1.000"/></svg>