<svg xmlns="http://www.w3.org/2000/svg" viewBox="0 0 256 256" width="256" height="256"><path d="M 208 32 L 48 32 C 37 32 29 40 29 51 L 29 205 C 29 216 37 224 48 224 L 208 224 C 219 224 227 216 227 205 L 227 51 C 227 40 219 32 208 32 Z M 208 205 L 48 205 L 48 51 L 208 51 L 208 205 Z M 128 160 C 107 160 91 144 91 123 C 91 102 107 86 128 86 C 149 86 165 102 165 123 C 165 144 149 160 128 160 Z M 128 98 C 113 98 101 110 101 123 C 101 137 113 149 128 149 C 143 149 155 137 155 123 C 155 110 143 98 128 98 Z M 128 181 C 115 181 105 171 105 158 C 105 145 115 135 128 135 C 141 135 151 145 151 158 C 151 171 141 181 128 181 Z M 128 141 C 122 141 117 146 117 153 C 117 160 122 165 128 165 C 134 165 139 160 139 153 C 139 146 134 141 128 141 Z" fill="#000000" stroke="none" stroke-width="0" opacity="1.000"/></svg>