<svg xmlns="http://www.w3.org/2000/svg" viewBox="0 0 256 256" width="256" height="256"><path d="M 197 80 L 134 80 C 130 80 126 76 126 72 C 126 68 130 64 134 64 L 197 64 C 201 64 205 68 205 72 C 205 76 201 80 197 80 Z M 197 128 L 134 128 C 130 128 126 124 126 120 C 126 116 130 112 134 112 L 197 112 C 201 112 205 116 205 120 C 205 124 201 128 197 128 Z M 197 176 L 134 176 C 130 176 126 172 126 168 C 126 164 130 160 134 160 L 197 160 C 201 160 205 164 205 168 C 205 172 201 176 197 176 Z M 128 208 C 124 208 120 204 120 200 L 120 168 C 120 164 124 160 128 160 C 132 160 136 164 136 168 L 136 200 C 136 204 132 208 128 208 Z M 128 136 C 124 136 120 132 120 128 L 120 96 C 120 92 124 88 128 88 C 132 88 136 92 136 96 L 136 128 C 136 132 132 136 128 136 Z M 128 56 C 124 56 120 52 120 48 L 120 16 C 120 12 124 8 128 8 C 132 8 136 12 136 16 L 136 48 C 136 52 132 56 128 56 Z" fill="#000000" stroke="none" stroke-width="0" opacity="1.000"/></svg>