<svg xmlns="http://www.w3.org/2000/svg" viewBox="0 0 256 256" width="256" height="256"><path d="M 128 0 C 57 0 0 57 0 128 C 0 199 57 255 128 255 C 199 255 255 199 255 128 C 255 57 199 0 128 0 Z M 134 192 L 122 192 L 122 170 L 134 170 L 134 192 Z M 134 146 L 122 146 L 122 124 L 134 124 L 134 146 Z M 134 100 L 122 100 L 122 78 L 134 78 L 134 100 Z M 134 64 L 122 64 L 122 42 L 134 42 L 134 64 Z M 134 22 L 122 22 L 122 4 A 4 4 0 0 0 117 0 L 139 0 A 4 4 0 0 0 134 4 L 134 22 Z M 134 222 L 122 222 L 122 200 L 134 200 L 134 222 Z M 134 186 L 122 186 L 122 164 L 134 164 L 134 186 Z M 134 150 L 122 150 L 122 128 L 134 128 L 134 150 Z M 134 114 L 122 114 L 122 92 L 134 92 L 134 114 Z M 134 78 L 122 78 L 122 56 L 134 56 L 134 78 Z M 134 32 L 122 32 L 122 10 A 4 4 0 0 0 117 6 L 139 6 A 4 4 0 0 0 134 10 L 134 32 Z" fill="#808080" stroke="none" stroke-width="0" opacity="1.000"/></svg>