<svg xmlns="http://www.w3.org/2000/svg" viewBox="0 0 256 256" width="256" height="256"><path d="M 197 80 L 197 43 C 197 21 176 0 154 0 L 102 0 C 80 0 59 21 59 43 L 59 80 L 32 80 C 26 80 21 85 21 91 L 21 213 C 21 219 26 224 32 224 L 224 224 C 230 224 235 219 235 213 L 235 91 C 235 85 230 80 224 80 L 197 80 Z M 102 21 L 154 21 C 168 21 181 34 181 48 L 181 69 L 75 69 L 75 48 C 75 34 88 21 102 21 Z M 213 203 L 43 203 L 43 96 L 213 96 L 213 203 Z M 128 160 L 128 181 C 128 185 124 189 120 189 C 116 189 112 185 112 181 L 112 160 C 112 156 116 152 120 152 C 124 152 128 156 128 160 Z" fill="#000000" stroke="none" stroke-width="0" opacity="1.000"/></svg>