<svg xmlns="http://www.w3.org/2000/svg" viewBox="0 0 256 256" width="256" height="256"><path d="M 197 34 L 59 34 C 48 34 39 43 39 54 L 39 202 C 39 213 48 222 59 222 L 197 222 C 208 222 217 213 217 202 L 217 54 C 217 43 208 34 197 34 Z M 171 181 A 13 13 0 1 1 171 206 A 13 13 0 0 1 171 181 Z M 139 181 A 13 13 0 1 1 139 206 A 13 13 0 0 1 139 181 Z M 107 181 A 13 13 0 1 1 107 206 A 13 13 0 0 1 107 181 Z M 75 181 A 13 13 0 1 1 75 206 A 13 13 0 0 1 75 181 Z M 171 139 A 13 13 0 1 1 171 164 A 13 13 0 0 1 171 139 Z M 139 139 A 13 13 0 1 1 139 164 A 13 13 0 0 1 139 139 Z M 107 139 A 13 13 0 1 1 107 164 A 13 13 0 0 1 107 139 Z M 75 139 A 13 13 0 1 1 75 164 A 13 13 0 0 1 75 139 Z" fill="none" stroke="none" stroke-width="0" opacity="1.000"/></svg>