<svg xmlns="http://www.w3.org/2000/svg" viewBox="0 0 256 256" width="256" height="256"><path d="M 32 48 L 32 208 C 32 217 39 224 48 224 L 208 224 C 217 224 224 217 224 208 L 224 48 C 224 39 217 32 208 32 L 48 32 C 39 32 32 39 32 48 Z M 160 160 L 160 144 L 184 144 L 184 160 L 208 160 L 208 184 L 184 184 L 184 208 L 160 208 L 160 184 L 136 184 L 136 208 L 112 208 L 112 184 L 88 184 L 88 208 L 64 208 L 64 184 L 40 184 L 40 160 L 64 160 L 64 144 L 88 144 L 88 160 L 112 160 L 112 144 L 136 144 L 136 160 L 160 160 Z M 160 112 L 160 96 L 184 96 L 184 112 L 208 112 L 208 136 L 184 136 L 184 160 L 160 160 L 160 136 L 136 136 L 136 160 L 112 160 L 112 136 L 88 136 L 88 160 L 64 160 L 64 136 L 40 136 L 40 112 L 64 112 L 64 96 L 88 96 L 88 112 L 112 112 L 112 96 L 136 96 L 136 112 L 160 112 Z M 160 80 L 160 64 L 184 64 L 184 80 L 208 80 L 208 104 L 184 104 L 184 120 L 160 120 L 160 104 L 136 104 L 136 120 L 112 120 L 112 104 L 88 104 L 88 120 L 64 120 L 64 104 L 40 104 L 40 80 L 64 80 L 64 64 L 88 64 L 88 80 L 112 80 L 112 64 L 136 64 L 136 80 L 160 80 Z" fill="#000000" stroke="none" stroke-width="0" opacity="1.000"/></svg>