<svg xmlns="http://www.w3.org/2000/svg" viewBox="0 0 256 256" width="256" height="256"><path d="M 194 208 L 62 208 C 57 208 53 204 53 199 L 53 57 C 53 52 57 48 62 48 L 194 48 C 199 48 203 52 203 57 L 203 199 C 203 204 199 208 194 208 Z M 62 59 C 60 59 59 60 59 62 L 59 199 C 59 201 60 202 62 202 L 194 202 C 196 202 197 201 197 199 L 197 62 C 197 60 196 59 194 59 L 62 59 Z" fill="#FFFFFF" stroke="none" stroke-width="0" opacity="1.000"/><path d="M 194 208 L 62 208 C 57 208 53 204 53 199 L 53 57 C 53 52 57 48 62 48 L 194 48 C 199 48 203 52 203 57 L 203 199 C 203 204 199 208 194 208 Z M 62 59 C 60 59 59 60 59 62 L 59 199 C 59 201 60 202 62 202 L 194 202 C 196 202 197 201 197 199 L 197 62 C 197 60 196 59 194 59 L 62 59 Z" fill="#1E90FF" stroke="none" stroke-width="0" opacity="1.000"/><path d="M 171 112 L 128 155 L 85 112 L 72 125 L 128 171 L 184 125 L 171 112 Z" fill="#1E90FF" stroke="none" stroke-width="0" opacity="1.000"/></svg>