<svg xmlns="http://www.w3.org/2000/svg" viewBox="0 0 256 256" width="256" height="256"><path d="M 197 48 L 197 208 C 197 213 193 217 188 217 L 68 217 C 63 217 59 213 59 208 L 59 48 C 59 43 63 39 68 39 L 188 39 C 193 39 197 43 197 48 Z" fill="#808080" stroke="none" stroke-width="0" opacity="1.000"/><path d="M 188 107 L 68 107 C 63 107 59 103 59 98 L 59 48 C 59 43 63 39 68 39 L 188 39 C 193 39 197 43 197 48 L 197 98 C 197 103 193 107 188 107 Z M 68 48 L 68 98 L 188 98 L 188 48 L 68 48 Z" fill="#228B22" stroke="none" stroke-width="0" opacity="1.000"/><path d="M 128 160 C 123 160 119 156 119 151 L 119 107 C 119 102 123 98 128 98 C 133 98 137 102 137 107 L 137 151 C 137 156 133 160 128 160 Z" fill="#FFFFFF" stroke="none" stroke-width="0" opacity="1.000"/></svg>