<svg xmlns="http://www.w3.org/2000/svg" viewBox="0 0 256 256" width="256" height="256"><path d="M 197 34 L 180 34 C 176 34 172 38 172 42 L 172 100 C 172 104 176 108 180 108 L 197 108 C 201 108 205 104 205 100 L 205 42 C 205 38 201 34 197 34 Z M 197 115 L 180 115 C 176 115 172 119 172 123 L 172 181 C 172 185 176 189 180 189 L 197 189 C 201 189 205 185 205 181 L 205 123 C 205 119 201 115 197 115 Z M 197 197 L 180 197 C 176 197 172 201 172 205 L 172 222 C 172 226 176 230 180 230 L 197 230 C 201 230 205 226 205 222 L 205 205 C 205 201 201 197 197 197 Z M 128 160 A 12 12 0 1 0 128 184 A 12 12 0 0 0 128 160 Z M 128 136 A 8 8 0 1 1 128 152 A 8 8 0 0 1 128 136 Z M 128 104 A 16 16 0 1 0 128 144 A 16 16 0 0 0 128 104 Z" fill="none" stroke="none" stroke-width="0" opacity="1.000"/></svg>