<svg xmlns="http://www.w3.org/2000/svg" viewBox="0 0 256 256" width="256" height="256"><path d="M 197 34 C 180 21 156 16 128 16 C 100 16 76 21 59 34 C 42 47 32 64 32 82 L 32 174 C 32 192 42 209 59 222 C 76 235 100 240 128 240 C 156 240 180 235 197 222 C 214 209 224 192 224 174 L 224 82 C 224 64 214 47 197 34 Z M 128 224 C 105 224 84 216 68 202 C 52 187 44 168 44 145 L 44 82 C 44 69 52 50 68 35 C 84 21 105 13 128 13 C 151 13 172 21 188 35 C 204 50 212 69 212 82 L 212 145 C 212 168 204 187 188 202 C 172 216 151 224 128 224 Z" fill="#FF8C00" stroke="none" stroke-width="0" opacity="1.000"/></svg>