<svg xmlns="http://www.w3.org/2000/svg" viewBox="0 0 256 256" width="256" height="256"><path d="M 197 30 C 184 17 165 11 144 11 L 112 11 C 91 11 72 17 59 30 C 46 43 38 62 38 83 L 38 197 C 38 218 51 231 69 231 L 187 231 C 205 231 218 218 218 197 L 218 83 C 218 62 210 43 197 30 Z M 144 21 C 158 21 170 27 179 37 C 188 47 194 60 194 74 L 194 83 C 194 86 193 89 191 91 C 189 93 186 94 183 94 L 73 94 C 70 94 67 93 65 91 C 63 89 62 86 62 83 L 62 74 C 62 60 68 47 77 37 C 86 27 98 21 112 21 L 144 21 Z M 187 218 L 69 218 C 64 218 60 214 60 209 C 60 204 64 200 69 200 L 187 200 C 192 200 196 204 196 209 C 196 214 192 218 187 218 Z M 187 228 L 69 228 C 64 228 60 224 60 219 C 60 214 64 210 69 210 L 187 210 C 192 210 196 214 196 219 C 196 224 192 228 187 228 Z M 187 238 L 69 238 C 64 238 60 234 60 229 C 60 224 64 220 69 220 L 187 220 C 192 220 196 224 196 229 C 196 234 192 238 187 238 Z M 187 248 L 69 248 C 64 248 60 244 60 239 C 60 234 64 230 69 230 L 187 230 C 192 230 196 234 196 239 C 196 244 192 248 187 248 Z" fill="#000000" stroke="none" stroke-width="0" opacity="1.000"/></svg>