<svg xmlns="http://www.w3.org/2000/svg" viewBox="0 0 256 256" width="256" height="256"><path d="M 32 48 L 224 48 C 230 48 235 53 235 59 L 235 75 C 235 81 230 86 224 86 L 32 86 C 26 86 21 81 21 75 L 21 59 C 21 53 26 48 32 48 Z M 32 107 L 224 107 C 230 107 235 112 235 118 L 235 134 C 235 140 230 145 224 145 L 32 145 C 26 145 21 140 21 134 L 21 118 C 21 112 26 107 32 107 Z M 32 166 L 224 166 C 230 166 235 171 235 177 L 235 193 C 235 200 230 204 224 204 L 32 204 C 26 204 21 200 21 193 L 21 177 C 21 171 26 166 32 166 Z M 32 225 L 224 225 C 230 225 235 230 235 235 L 235 251 C 235 255 230 255 224 255 L 32 255 C 26 255 21 255 21 251 L 21 235 C 21 230 26 225 32 225 Z" fill="#000000" stroke="none" stroke-width="0" opacity="1.000"/></svg>