<svg xmlns="http://www.w3.org/2000/svg" viewBox="0 0 256 256" width="256" height="256"><path d="M 128 0 C 57 0 0 57 0 128 C 0 199 57 255 128 255 C 199 255 255 199 255 128 C 255 57 199 0 128 0 Z" fill="#FF69B4" stroke="none" stroke-width="0" opacity="1.000"/><path d="M 128 149 A 11 11 0 0 1 117 139 L 117 75 A 11 11 0 0 1 139 75 L 139 139 A 11 11 0 0 1 128 149 Z" fill="#FFD700" stroke="none" stroke-width="0" opacity="1.000"/><path d="M 128 149 A 11 11 0 0 1 117 139 L 117 75 A 11 11 0 0 1 139 75 L 139 139 A 11 11 0 0 1 128 149 Z M 128 160 A 11 11 0 0 1 117 149 L 117 75 A 11 11 0 0 1 139 75 L 139 149 A 11 11 0 0 1 128 160 Z" fill="#FFFFFF" stroke="none" stroke-width="0" opacity="1.000"/></svg>