<svg xmlns="http://www.w3.org/2000/svg" viewBox="0 0 256 256" width="256" height="256"><path d="M 203 43 L 171 43 A 11 11 0 0 0 160 53 L 160 85 L 96 85 L 96 53 A 11 11 0 0 0 85 43 L 53 43 A 11 11 0 0 0 43 53 L 43 203 A 11 11 0 0 0 53 213 L 203 213 A 11 11 0 0 0 213 203 L 213 128 A 11 11 0 0 0 203 117 L 171 117 L 171 53 A 11 11 0 0 0 160 43 L 128 43 L 128 117 L 96 117 A 11 11 0 0 0 85 128 L 85 203 A 11 11 0 0 0 96 213 L 160 213 A 11 11 0 0 0 171 203 L 171 139 L 203 139 A 11 11 0 0 0 213 128 L 213 53 A 11 11 0 0 0 203 43 Z M 128 149 A 11 11 0 0 1 117 139 L 117 117 L 139 117 L 139 139 A 11 11 0 0 1 128 149 Z M 128 171 A 11 11 0 0 1 117 160 L 117 139 L 139 139 L 139 160 A 11 11 0 0 1 128 171 Z M 128 192 A 11 11 0 0 1 117 181 L 117 160 L 139 160 L 139 181 A 11 11 0 0 1 128 192 Z M 128 128 A 11 11 0 0 1 117 117 L 117 96 L 139 96 L 139 117 A 11 11 0 0 1 128 128 Z M 128 107 A 11 11 0 0 1 117 96 L 117 75 L 139 75 L 139 96 A 11 11 0 0 1 128 107 Z" fill="#808080" stroke="none" stroke-width="0" opacity="1.000"/></svg>