<svg xmlns="http://www.w3.org/2000/svg" viewBox="0 0 256 256" width="256" height="256"><path d="M 203 43 L 192 43 L 192 21 C 192 17 188 13 184 13 L 72 13 C 68 13 64 17 64 21 L 64 43 L 53 43 C 49 43 45 47 45 51 L 45 213 C 45 217 49 221 53 221 L 203 221 C 207 221 211 217 211 213 L 211 51 C 211 47 207 43 203 43 Z M 181 203 L 75 203 L 75 181 L 181 181 L 181 203 Z M 181 160 L 75 160 L 75 139 L 181 139 L 181 160 Z M 181 117 L 75 117 L 75 96 L 181 96 L 181 117 Z M 181 75 L 75 75 L 75 53 L 181 53 L 181 75 Z M 181 32 L 75 32 L 75 11 L 181 11 L 181 32 Z M 181 213 L 75 213 L 75 192 L 181 192 L 181 213 Z" fill="#000000" stroke="none" stroke-width="0" opacity="1.000"/></svg>