<svg xmlns="http://www.w3.org/2000/svg" viewBox="0 0 256 256" width="256" height="256"><path d="M 203 48 L 53 48 C 49 48 46 51 46 55 L 46 171 C 46 175 49 178 53 178 L 203 178 C 207 178 210 175 210 171 L 210 55 C 210 51 207 48 203 48 Z M 192 162 L 64 162 L 64 64 L 192 64 L 192 162 Z M 192 146 L 64 146 L 64 55 C 64 53 65 51 67 51 L 189 51 C 191 51 192 53 192 55 L 192 146 Z M 128 134 A 10 10 0 0 1 118 124 L 118 102 A 10 10 0 0 1 138 102 L 138 124 A 10 10 0 0 1 128 134 Z M 128 114 A 2 2 0 0 0 126 116 L 126 120 A 2 2 0 0 0 128 122 L 132 122 A 2 2 0 0 0 134 120 L 134 116 A 2 2 0 0 0 132 114 L 128 114 Z M 128 94 A 2 2 0 0 0 126 96 L 126 100 A 2 2 0 0 0 128 102 L 132 102 A 2 2 0 0 0 134 100 L 134 96 A 2 2 0 0 0 132 94 L 128 94 Z M 128 74 A 2 2 0 0 0 126 76 L 126 80 A 2 2 0 0 0 128 82 L 132 82 A 2 2 0 0 0 134 80 L 134 76 A 2 2 0 0 0 132 74 L 128 74 Z M 128 54 A 2 2 0 0 0 126 56 L 126 60 A 2 2 0 0 0 128 62 L 132 62 A 2 2 0 0 0 134 60 L 134 56 A 2 2 0 0 0 132 54 L 128 54 Z M 128 34 A 2 2 0 0 0 126 36 L 126 40 A 2 2 0 0 0 128 42 L 132 42 A 2 2 0 0 0 134 40 L 134 36 A 2 2 0 0 0 132 34 L 128 34 Z" fill="#000000" stroke="none" stroke-width="0" opacity="1.000"/></svg>