<svg xmlns="http://www.w3.org/2000/svg" viewBox="0 0 256 256" width="256" height="256"><path d="M 32 48 L 32 208 C 32 217 39 224 48 224 L 208 224 C 217 224 224 217 224 208 L 224 48 C 224 39 217 32 208 32 L 48 32 C 39 32 32 39 32 48 Z M 160 160 L 160 192 L 192 192 L 192 160 L 160 160 Z M 160 112 L 160 144 L 192 144 L 192 112 L 160 112 Z M 160 64 L 160 96 L 192 96 L 192 64 L 160 64 Z M 160 0 L 160 32 L 192 32 L 192 0 L 160 0 Z M 0 0 L 0 32 L 32 32 L 32 0 L 0 0 Z M 0 160 L 0 192 L 32 192 L 32 160 L 0 160 Z M 0 224 L 0 192 L 32 192 L 32 224 L 0 224 Z" fill="#000000" stroke="none" stroke-width="0" opacity="1.000"/></svg>