<svg xmlns="http://www.w3.org/2000/svg" viewBox="0 0 256 256" width="256" height="256"><path d="M 48 72 L 208 72 C 213 72 216 69 216 64 C 216 59 213 56 208 56 L 48 56 C 43 56 40 59 40 64 C 40 69 43 72 48 72 Z M 48 120 L 208 120 C 213 120 216 117 216 112 C 216 107 213 104 208 104 L 48 104 C 43 104 40 107 40 112 C 40 117 43 120 48 120 Z M 48 168 L 208 168 C 213 168 216 165 216 160 C 216 155 213 152 208 152 L 48 152 C 43 152 40 155 40 160 C 40 165 43 168 48 168 Z" fill="none" stroke="none" stroke-width="0" opacity="1.000"/></svg>