<svg xmlns="http://www.w3.org/2000/svg" viewBox="0 0 256 256" width="256" height="256"><path d="M 139 48 L 139 75 L 107 75 L 107 48 L 139 48 Z M 139 176 L 139 203 L 107 203 L 107 176 L 139 176 Z M 128 11 L 128 32 L 160 32 L 160 11 L 128 11 Z M 128 245 L 128 219 L 160 219 L 160 245 L 128 245 Z M 128 160 L 128 187 L 160 187 L 160 160 L 128 160 Z M 128 85 L 128 112 L 160 112 L 160 85 L 128 85 Z M 128 139 L 128 166 L 160 166 L 160 139 L 128 139 Z M 128 192 L 128 224 L 160 224 L 160 192 L 128 192 Z M 128 128 C 101 128 80 107 80 80 C 80 53 101 32 128 32 C 155 32 176 53 176 80 C 176 107 155 128 128 128 Z M 128 48 C 107 48 88 67 88 88 C 88 109 107 128 128 128 C 149 128 168 109 168 88 C 168 67 149 48 128 48 Z" fill="none" stroke="none" stroke-width="0" opacity="1.000"/></svg>