<svg xmlns="http://www.w3.org/2000/svg" viewBox="0 0 256 256" width="256" height="256"><path d="M 128 0 C 57 0 0 57 0 128 C 0 199 57 255 128 255 C 199 255 255 199 255 128 C 255 57 199 0 128 0 Z M 128 234 C 70 234 22 186 22 128 C 22 70 70 22 128 22 C 186 22 234 70 234 128 C 234 186 186 234 128 234 Z M 170 170 L 136 136 L 170 102 L 184 116 L 136 164 L 170 128 L 136 92 L 170 58 L 184 72 L 136 120 L 170 156 L 184 140 L 136 92 L 170 128 L 136 164 L 170 170 Z" fill="#00B4B4" stroke="none" stroke-width="0" opacity="1.000"/></svg>