<svg xmlns="http://www.w3.org/2000/svg" viewBox="0 0 256 256" width="256" height="256"><path d="M 203 48 L 53 48 C 47 48 43 52 43 58 L 43 203 C 43 209 47 213 53 213 L 203 213 C 209 213 213 209 213 203 L 213 58 C 213 52 209 48 203 48 Z M 181 139 L 139 139 L 139 181 L 117 181 L 117 139 L 75 139 L 75 117 L 117 117 L 117 75 L 139 75 L 139 117 L 181 117 L 181 139 Z M 181 96 L 139 96 L 139 53 L 117 53 L 117 96 L 75 96 L 75 75 L 117 75 L 117 32 L 139 32 L 139 75 L 181 75 L 181 96 Z" fill="#000000" stroke="none" stroke-width="0" opacity="1.000"/></svg>