<svg xmlns="http://www.w3.org/2000/svg" viewBox="0 0 256 256" width="256" height="256"><path d="M 208 32 L 48 32 C 37 32 29 40 29 51 L 29 205 C 29 216 37 224 48 224 L 208 224 C 219 224 227 216 227 205 L 227 51 C 227 40 219 32 208 32 Z M 181 181 L 181 192 L 75 192 L 75 181 L 181 181 Z M 181 149 L 181 160 L 75 160 L 75 149 L 181 149 Z M 181 117 L 181 128 L 75 128 L 75 117 L 181 117 Z M 181 85 L 181 96 L 75 96 L 75 85 L 181 85 Z M 181 53 L 181 64 L 75 64 L 75 53 L 181 53 Z M 128 107 A 32 32 0 1 0 160 139 A 32 32 0 0 0 128 107 Z M 128 149 A 11 11 0 1 1 139 139 A 11 11 0 0 1 128 149 Z M 128 171 A 11 11 0 1 1 139 160 A 11 11 0 0 1 128 171 Z M 128 192 A 11 11 0 1 1 139 181 A 11 11 0 0 1 128 192 Z M 128 213 A 11 11 0 1 1 139 203 A 11 11 0 0 1 128 213 Z" fill="#000000" stroke="none" stroke-width="0" opacity="1.000"/></svg>