<svg xmlns="http://www.w3.org/2000/svg" viewBox="0 0 256 256" width="256" height="256"><path d="M 230 219 L 187 176 C 214 149 214 107 187 80 C 160 53 118 53 91 80 C 64 107 64 149 91 176 L 48 229 C 33 244 13 244 3 229 C 0 214 0 194 3 179 L 60 126 C 75 111 95 111 110 126 L 110 126 C 125 141 125 161 110 176 C 95 191 75 191 60 176 L 3 133 C 0 118 0 98 3 83 C 6 68 13 58 30 53 L 83 10 C 98 3 118 3 133 10 L 176 53 C 191 58 208 68 211 83 C 214 98 214 118 211 133 L 176 176 C 161 191 141 191 126 176 C 111 161 111 141 126 126 L 126 126 C 141 111 161 111 176 126 L 229 179 C 244 194 244 214 229 229 C 214 244 194 244 179 229 L 133 183 C 118 168 118 148 133 133 L 133 133 C 148 118 168 118 183 133 L 229 179 C 244 194 244 214 229 229 Z M 128 160 C 93 160 64 131 64 96 C 64 61 93 32 128 32 C 163 32 192 61 192 96 C 192 131 163 160 128 160 Z" fill="#000000" stroke="none" stroke-width="0" opacity="1.000"/></svg>