<svg xmlns="http://www.w3.org/2000/svg" viewBox="0 0 256 256" width="256" height="256"><path d="M 203 48 L 53 48 C 47 48 43 52 43 58 L 43 198 C 43 204 47 208 53 208 L 203 208 C 209 208 213 204 213 198 L 213 58 C 213 52 209 48 203 48 Z M 192 198 L 64 198 L 64 58 L 192 58 L 192 198 Z M 192 181 L 64 181 L 64 64 L 192 64 L 192 181 Z M 128 160 L 128 144 L 139 144 L 139 160 L 128 160 Z M 128 128 L 128 112 L 139 112 L 139 128 L 128 128 Z M 128 96 L 128 80 L 139 80 L 139 96 L 128 96 Z M 128 72 L 128 56 L 139 56 L 139 72 L 128 72 Z M 128 48 L 128 32 L 139 32 L 139 48 L 128 48 Z" fill="#808080" stroke="none" stroke-width="0" opacity="1.000"/></svg>