<svg xmlns="http://www.w3.org/2000/svg" viewBox="0 0 256 256" width="256" height="256"><path d="M 179 48 L 77 48 C 60 48 48 60 48 77 L 48 179 C 48 196 60 208 77 208 L 179 208 C 196 208 208 196 208 179 L 208 77 C 208 60 196 48 179 48 Z" fill="#00B4B4" stroke="none" stroke-width="0" opacity="1.000"/><path d="M 128 160 A 16 16 0 1 0 128 192 A 16 16 0 0 0 128 160 Z M 128 104 A 16 16 0 1 0 128 136 A 16 16 0 0 0 128 104 Z M 128 64 A 16 16 0 1 0 128 96 A 16 16 0 0 0 128 64 Z" fill="#FFFFFF" stroke="none" stroke-width="0" opacity="1.000"/><path d="M 128 160 A 16 16 0 1 0 128 192 A 16 16 0 0 0 128 160 Z M 128 104 A 16 16 0 1 0 128 136 A 16 16 0 0 0 128 104 Z M 128 64 A 16 16 0 1 0 128 96 A 16 16 0 0 0 128 64 Z" fill="#FFFFFF" stroke="none" stroke-width="0" opacity="1.000"/></svg>