<svg xmlns="http://www.w3.org/2000/svg" viewBox="0 0 256 256" width="256" height="256"><path d="M 184 32 L 72 32 C 69 32 66 35 66 38 L 66 102 C 66 105 69 108 72 108 L 184 108 C 187 108 190 105 190 102 L 190 38 C 190 35 187 32 184 32 Z M 184 128 L 72 128 C 69 128 66 131 66 134 L 66 208 C 66 211 69 214 72 214 L 184 214 C 187 214 190 211 190 208 L 190 134 C 190 131 187 128 184 128 Z M 184 154 L 72 154 C 69 154 66 157 66 160 L 66 224 C 66 227 69 230 72 230 L 184 230 C 187 230 190 227 190 224 L 190 160 C 190 157 187 154 184 154 Z M 184 180 L 72 180 C 69 180 66 183 66 186 L 66 250 C 66 253 69 255 72 255 L 184 255 C 187 255 190 253 190 250 L 190 186 C 190 183 187 180 184 180 Z" fill="#000000" stroke="none" stroke-width="0" opacity="1.000"/></svg>