<svg xmlns="http://www.w3.org/2000/svg" viewBox="0 0 256 256" width="256" height="256"><path d="M 208 32 L 48 32 C 37 32 29 40 29 51 L 29 205 C 29 216 37 224 48 224 L 208 224 C 219 224 227 216 227 205 L 227 51 C 227 40 219 32 208 32 Z M 192 192 L 64 192 L 64 64 L 192 64 L 192 192 Z M 128 160 A 32 32 0 1 0 160 128 A 32 32 0 0 0 128 160 Z M 128 112 A 16 16 0 1 1 144 128 A 16 16 0 0 1 128 112 Z M 128 80 A 32 32 0 1 0 160 48 A 32 32 0 0 0 128 80 Z M 128 48 A 16 16 0 1 1 144 64 A 16 16 0 0 1 128 48 Z" fill="#000000" stroke="none" stroke-width="0" opacity="1.000"/></svg>