<svg xmlns="http://www.w3.org/2000/svg" viewBox="0 0 256 256" width="256" height="256"><path d="M 139 149 L 171 181 A 11 11 0 0 0 181 171 L 149 139 L 203 139 A 11 11 0 0 0 203 117 L 149 117 L 181 85 A 11 11 0 0 0 171 75 L 139 107 L 139 64 A 11 11 0 0 0 117 64 L 117 107 L 85 75 A 11 11 0 0 0 75 85 L 107 117 L 53 117 A 11 11 0 0 0 53 139 L 107 139 L 75 171 A 11 11 0 0 0 85 181 L 117 149 L 117 203 A 11 11 0 0 0 139 203 L 139 149 Z" fill="#000000" stroke="none" stroke-width="0" opacity="1.000"/></svg>