<svg xmlns="http://www.w3.org/2000/svg" viewBox="0 0 256 256" width="256" height="256"><path d="M 32 48 L 224 48 C 230 48 235 53 235 59 L 235 75 C 235 81 230 86 224 86 L 32 86 C 26 86 21 81 21 75 L 21 59 C 21 53 26 48 32 48 Z M 32 110 L 224 110 C 230 110 235 115 235 121 L 235 137 C 235 143 230 148 224 148 L 32 148 C 26 148 21 143 21 137 L 21 121 C 21 115 26 110 32 110 Z M 32 172 L 224 172 C 230 172 235 177 235 183 L 235 199 C 235 205 230 210 224 210 L 32 210 C 26 210 21 205 21 199 L 21 183 C 21 177 26 172 32 172 Z M 32 234 L 224 234 C 230 234 235 239 235 245 L 235 255 C 235 255 230 255 224 255 L 32 255 C 26 255 21 255 21 255 L 21 245 C 21 239 26 234 32 234 Z" fill="#808080" stroke="none" stroke-width="0" opacity="1.000"/></svg>