<svg xmlns="http://www.w3.org/2000/svg" viewBox="0 0 256 256" width="256" height="256"><path d="M 203 24 L 53 24 C 47 24 43 28 43 34 L 43 222 C 43 228 47 232 53 232 L 203 232 C 209 232 213 228 213 222 L 213 34 C 213 28 209 24 203 24 Z M 192 213 L 64 213 L 64 43 L 192 43 L 192 213 Z M 128 160 A 11 11 0 0 1 117 149 L 117 117 A 11 11 0 0 1 139 117 L 139 149 A 11 11 0 0 1 128 160 Z M 128 101 A 32 32 0 0 0 96 133 L 96 149 A 11 11 0 0 1 75 149 L 75 133 A 11 11 0 0 1 96 133 L 96 128 A 32 32 0 0 0 128 96 L 128 101 Z" fill="none" stroke="none" stroke-width="0" opacity="1.000"/></svg>