<svg xmlns="http://www.w3.org/2000/svg" viewBox="0 0 256 256" width="256" height="256"><path d="M 32 48 L 96 48 C 107 48 112 53 112 64 L 112 192 C 112 203 107 208 96 208 L 32 208 C 21 208 16 203 16 192 L 16 64 C 16 53 21 48 32 48 Z M 32 192 L 32 64 L 96 64 L 96 192 L 32 192 Z M 160 48 L 224 48 C 235 48 240 53 240 64 L 240 192 C 240 203 235 208 224 208 L 160 208 C 149 208 144 203 144 192 L 144 64 C 144 53 149 48 160 48 Z M 160 192 L 160 64 L 224 64 L 224 192 L 160 192 Z M 224 160 L 160 160 C 150 160 144 155 144 144 L 144 112 C 144 101 150 96 160 96 L 224 96 C 235 96 240 101 240 112 L 240 144 C 240 155 235 160 224 160 Z M 224 112 L 224 144 L 160 144 L 160 112 L 224 112 Z" fill="#808080" stroke="none" stroke-width="0" opacity="1.000"/></svg>