<svg xmlns="http://www.w3.org/2000/svg" viewBox="0 0 256 256" width="256" height="256"><path d="M 203 43 L 53 43 C 42 43 32 53 32 64 L 32 192 C 32 203 42 213 53 213 L 203 213 C 214 213 224 203 224 192 L 224 64 C 224 53 214 43 203 43 Z M 85 75 A 11 11 0 1 0 85 96 A 11 11 0 0 0 85 75 Z M 128 75 A 11 11 0 1 0 128 96 A 11 11 0 0 0 128 75 Z M 171 75 A 11 11 0 1 0 171 96 A 11 11 0 0 0 171 75 Z M 128 128 A 11 11 0 1 0 128 149 A 11 11 0 0 0 128 128 Z M 171 128 A 11 11 0 1 0 171 149 A 11 11 0 0 0 171 128 Z" fill="#000000" stroke="none" stroke-width="0" opacity="1.000"/></svg>