<svg xmlns="http://www.w3.org/2000/svg" viewBox="0 0 256 256" width="256" height="256"><path d="M 197 48 L 59 48 C 50 48 43 55 43 64 L 43 192 C 43 201 50 208 59 208 L 197 208 C 206 208 213 201 213 192 L 213 64 C 213 55 206 48 197 48 Z M 197 192 L 59 192 L 59 64 L 197 64 L 197 192 Z" fill="#FF69B4" stroke="none" stroke-width="0" opacity="1.000"/><path d="M 197 112 L 59 112 C 50 112 43 119 43 128 L 43 192 C 43 201 50 208 59 208 L 197 208 C 206 208 213 201 213 192 L 213 128 C 213 119 206 112 197 112 Z M 197 192 L 59 192 L 59 128 L 197 128 L 197 192 Z M 197 144 L 59 144 C 50 144 43 151 43 160 L 43 192 C 43 201 50 208 59 208 L 197 208 C 206 208 213 201 213 192 L 213 160 C 213 151 206 144 197 144 Z M 197 192 L 59 192 L 59 160 L 197 160 L 197 192 Z" fill="#FFFFFF" stroke="none" stroke-width="0" opacity="1.000"/><path d="M 197 176 L 59 176 C 50 176 43 183 43 192 L 43 213 C 43 222 50 229 59 229 L 197 229 C 206 229 213 222 213 213 L 213 192 C 213 183 206 176 197 176 Z M 197 213 L 59 213 L 59 192 L 197 192 L 197 213 Z" fill="#FFFFFF" stroke="none" stroke-width="0" opacity="1.000"/></svg>