<svg xmlns="http://www.w3.org/2000/svg" viewBox="0 0 256 256" width="256" height="256"><path d="M 48 0 L 96 0 C 107 0 117 7 117 16 L 117 48 C 117 57 107 64 96 64 L 48 64 C 37 64 27 57 27 48 L 27 16 C 27 7 37 0 48 0 Z M 96 117 L 48 117 C 37 117 27 110 27 101 L 27 53 C 27 44 37 37 48 37 L 96 37 C 107 37 117 44 117 53 L 117 101 C 117 110 107 117 96 117 Z M 96 235 L 48 235 C 37 235 27 228 27 219 L 27 171 C 27 162 37 155 48 155 L 96 155 C 107 155 117 162 117 171 L 117 219 C 117 228 107 235 96 235 Z M 235 0 L 187 0 C 176 0 166 7 166 16 L 166 48 C 166 57 176 64 187 64 L 235 64 C 246 64 255 57 255 48 L 255 16 C 255 7 246 0 235 0 Z M 187 117 L 139 117 C 128 117 117 110 117 101 L 117 53 C 117 44 128 37 139 37 L 187 37 C 198 37 208 44 208 53 L 208 101 C 208 110 198 117 187 117 Z M 187 235 L 139 235 C 128 235 117 228 117 219 L 117 171 C 117 162 128 155 139 155 L 187 155 C 198 155 208 162 208 171 L 208 219 C 208 228 198 235 187 235 Z" fill="#808080" stroke="none" stroke-width="0" opacity="1.000"/></svg>