<svg xmlns="http://www.w3.org/2000/svg" viewBox="0 0 256 256" width="256" height="256"><path d="M 197 34 C 180 17 155 17 138 34 L 138 34 A 106 106 0 0 0 128 34 A 106 106 0 0 0 118 34 L 118 34 C 101 17 76 17 59 34 C 42 51 34 76 34 102 L 34 102 C 34 128 42 153 59 170 C 76 187 101 187 118 170 L 118 170 C 135 187 160 187 177 170 C 194 153 202 128 202 102 L 202 102 C 202 76 194 51 177 34 C 160 17 135 17 118 34 L 118 34 C 101 17 76 17 59 34 Z M 128 166 C 107 166 89 148 89 127 C 89 106 107 88 128 88 C 149 88 167 106 167 127 C 167 148 149 166 128 166 Z" fill="#000000" stroke="none" stroke-width="0" opacity="1.000"/></svg>