<svg xmlns="http://www.w3.org/2000/svg" viewBox="0 0 256 256" width="256" height="256"><path d="M 128 0 C 57 0 0 57 0 128 C 0 199 57 255 128 255 C 199 255 255 199 255 128 C 255 57 199 0 128 0 Z M 128 234 C 70 234 22 186 22 128 C 22 70 70 22 128 22 C 186 22 234 70 234 128 C 234 186 186 234 128 234 Z M 128 166 L 107 166 L 107 145 L 86 145 L 86 124 L 107 124 L 107 103 L 128 103 L 128 124 L 149 124 L 149 145 L 128 145 L 128 166 Z M 166 166 L 145 166 L 145 145 L 166 145 L 166 124 L 145 124 L 145 103 L 166 103 L 166 124 L 187 124 L 187 145 L 166 145 L 166 166 Z" fill="none" stroke="none" stroke-width="0" opacity="1.000"/></svg>