<svg xmlns="http://www.w3.org/2000/svg" viewBox="0 0 256 256" width="256" height="256"><path d="M 184 107 L 192 107 C 200 107 207 114 207 122 L 207 134 C 207 142 200 149 192 149 L 184 149 C 176 149 169 142 169 134 L 169 122 C 169 114 176 107 184 107 Z M 184 134 L 184 122 L 192 122 L 192 134 L 184 134 Z" fill="#DC143C" stroke="none" stroke-width="0" opacity="1.000"/><path d="M 184 107 L 192 107 C 200 107 207 114 207 122 L 207 134 C 207 142 200 149 192 149 L 184 149 C 176 149 169 142 169 134 L 169 122 C 169 114 176 107 184 107 Z M 184 134 L 184 122 L 192 122 L 192 134 L 184 134 Z" fill="#FF8C00" stroke="none" stroke-width="0" opacity="1.000"/><path d="M 184 107 L 192 107 C 200 107 207 114 207 122 L 207 134 C 207 142 200 149 192 149 L 184 149 C 176 149 169 142 169 134 L 169 122 C 169 114 176 107 184 107 Z M 184 134 L 184 122 L 192 122 L 192 134 L 184 134 Z" fill="#FF8C00" stroke="none" stroke-width="0" opacity="1.000"/></svg>