<svg xmlns="http://www.w3.org/2000/svg" viewBox="0 0 256 256" width="256" height="256"><path d="M 203 48 C 203 37 195 28 184 28 L 160 28 L 160 14 A 14 14 0 0 0 146 0 L 110 0 A 14 14 0 0 0 96 14 L 96 28 L 72 28 C 61 28 53 37 53 48 L 53 104 L 32 104 A 14 14 0 0 0 18 118 L 18 228 A 14 14 0 0 0 32 242 L 224 242 A 14 14 0 0 0 238 228 L 238 118 A 14 14 0 0 0 224 104 L 203 104 L 203 48 Z M 184 48 L 184 28 L 160 28 L 160 48 L 184 48 Z M 184 104 L 184 80 L 160 80 L 160 104 L 184 104 Z M 184 140 L 184 116 L 160 116 L 160 140 L 184 140 Z" fill="#000000" stroke="none" stroke-width="0" opacity="1.000"/></svg>