<svg xmlns="http://www.w3.org/2000/svg" viewBox="0 0 256 256" width="256" height="256"><path d="M 139 171 L 139 203 C 139 208 143 212 148 212 C 153 212 157 208 157 203 L 157 171 L 203 171 C 208 171 212 167 212 162 C 212 157 208 153 203 153 L 157 153 L 157 121 C 157 116 153 112 148 112 C 143 112 139 116 139 121 L 139 153 L 93 153 C 88 153 84 157 84 162 C 84 167 88 171 93 171 L 139 171 Z M 128 235 C 123 235 119 231 119 226 L 119 162 C 119 157 123 153 128 153 C 133 153 137 157 137 162 L 137 226 C 137 231 133 235 128 235 Z" fill="#000000" stroke="none" stroke-width="0" opacity="1.000"/></svg>