<svg xmlns="http://www.w3.org/2000/svg" viewBox="0 0 256 256" width="256" height="256"><path d="M 128 0 C 57 0 0 57 0 128 C 0 199 57 255 128 255 C 199 255 255 199 255 128 C 255 57 199 0 128 0 Z M 128 234 C 70 234 22 186 22 128 C 22 70 70 22 128 22 C 186 22 234 70 234 128 C 234 186 186 234 128 234 Z M 128 192 A 12 12 0 1 1 128 160 A 12 12 0 0 1 128 192 Z M 128 136 A 12 12 0 1 1 128 104 A 12 12 0 0 1 128 136 Z M 160 128 L 96 128 C 92 128 88 124 88 120 C 88 116 92 112 96 112 L 160 112 C 164 112 168 116 168 120 C 168 124 164 128 160 128 Z" fill="#1E90FF" stroke="none" stroke-width="0" opacity="1.000"/></svg>