<svg xmlns="http://www.w3.org/2000/svg" viewBox="0 0 256 256" width="256" height="256"><path d="M 139 149 L 171 107 L 139 107 L 139 85 L 171 85 L 171 64 L 139 64 L 139 43 L 171 43 L 171 21 L 139 21 L 139 0 L 117 0 L 117 21 L 85 21 L 85 43 L 117 43 L 117 64 L 85 64 L 85 85 L 117 85 L 117 107 L 85 107 L 85 149 L 117 149 L 117 171 L 85 171 L 85 192 L 117 192 L 117 213 L 85 213 L 85 235 L 117 235 L 117 255 L 139 255 L 139 235 L 171 235 L 171 213 L 139 213 L 139 192 L 171 192 L 171 171 L 139 171 L 139 149 Z" fill="#000000" stroke="none" stroke-width="0" opacity="1.000"/></svg>