<svg xmlns="http://www.w3.org/2000/svg" viewBox="0 0 256 256" width="256" height="256"><path d="M 203 43 L 53 43 C 42 43 32 52 32 64 L 32 192 C 32 204 42 213 53 213 L 203 213 C 214 213 224 204 224 192 L 224 64 C 224 52 214 43 203 43 Z M 203 203 L 53 203 A 11 11 0 0 1 43 192 L 43 64 A 11 11 0 0 1 53 53 L 203 53 A 11 11 0 0 1 213 64 L 213 192 A 11 11 0 0 1 203 203 Z M 171 85 L 139 128 L 171 160 L 181 149 L 139 117 L 181 85 L 171 85 Z" fill="none" stroke="none" stroke-width="0" opacity="1.000"/></svg>