<svg xmlns="http://www.w3.org/2000/svg" viewBox="0 0 256 256" width="256" height="256"><path d="M 197 30 L 184 17 A 11 11 0 0 0 171 17 L 128 60 L 85 17 A 11 11 0 0 0 72 17 L 59 30 A 11 11 0 0 0 59 43 L 128 112 L 197 43 A 11 11 0 0 0 197 30 Z M 128 245 C 124 245 120 242 120 238 L 120 181 L 72 181 A 11 11 0 0 1 61 171 L 61 112 L 120 112 L 120 55 C 120 51 124 48 128 48 C 132 48 136 51 136 55 L 136 112 L 195 112 L 195 171 A 11 11 0 0 1 184 181 L 136 181 L 136 238 C 136 242 132 245 128 245 Z" fill="#000000" stroke="none" stroke-width="0" opacity="1.000"/></svg>