<svg xmlns="http://www.w3.org/2000/svg" viewBox="0 0 256 256" width="256" height="256"><path d="M 128 0 C 57 0 0 57 0 128 C 0 199 57 255 128 255 C 199 255 255 199 255 128 C 255 57 199 0 128 0 Z M 128 234 C 69 234 22 187 22 128 C 22 69 69 22 128 22 C 187 22 234 69 234 128 C 234 187 187 234 128 234 Z M 128 166 A 38 38 0 1 1 128 90 A 38 38 0 0 1 128 166 Z M 128 118 A 22 22 0 1 0 128 76 A 22 22 0 0 0 128 118 Z M 128 60 A 14 14 0 1 1 128 86 A 14 14 0 0 1 128 60 Z M 128 198 A 38 38 0 1 1 128 122 A 38 38 0 0 1 128 198 Z M 128 150 A 22 22 0 1 0 128 108 A 22 22 0 0 0 128 150 Z M 128 92 A 14 14 0 1 1 128 118 A 14 14 0 0 1 128 92 Z" fill="#000000" stroke="none" stroke-width="0" opacity="1.000"/></svg>