<svg xmlns="http://www.w3.org/2000/svg" viewBox="0 0 256 256" width="256" height="256"><path d="M 128 0 C 199 0 255 57 255 128 C 255 199 199 255 128 255 C 57 255 0 199 0 128 C 0 57 57 0 128 0 Z M 128 23 C 69 23 23 69 23 128 C 23 187 69 233 128 233 C 187 233 233 187 233 128 C 233 69 187 23 128 23 Z M 149 107 L 149 128 L 107 128 L 107 107 L 149 107 Z M 149 149 L 149 171 L 107 171 L 107 149 L 149 149 Z M 149 192 L 149 203 L 107 203 L 107 192 L 149 192 Z M 149 235 L 149 245 L 107 245 L 107 235 L 149 235 Z" fill="#000000" stroke="none" stroke-width="0" opacity="1.000"/></svg>