<svg xmlns="http://www.w3.org/2000/svg" viewBox="0 0 256 256" width="256" height="256"><path d="M 203 48 L 53 48 C 47 48 43 52 43 58 L 43 198 C 43 204 47 208 53 208 L 203 208 C 209 208 213 204 213 198 L 213 58 C 213 52 209 48 203 48 Z M 203 198 L 53 198 L 53 58 L 203 58 L 203 198 Z M 192 184 L 64 184 L 64 176 L 192 176 L 192 184 Z M 192 160 L 64 160 L 64 152 L 192 152 L 192 160 Z M 192 136 L 64 136 L 64 128 L 192 128 L 192 136 Z M 192 112 L 64 112 L 64 104 L 192 104 L 192 112 Z M 192 88 L 64 88 L 64 80 L 192 80 L 192 88 Z" fill="#000000" stroke="none" stroke-width="0" opacity="1.000"/></svg>