<svg xmlns="http://www.w3.org/2000/svg" viewBox="0 0 256 256" width="256" height="256"><path d="M 107 32 C 84 32 64 52 64 75 C 64 98 84 117 107 117 C 130 117 150 98 150 75 C 150 52 130 32 107 32 Z M 107 107 C 90 107 75 92 75 75 C 75 58 90 43 107 43 C 124 43 139 58 139 75 C 139 92 124 107 107 107 Z M 107 139 C 84 139 64 159 64 181 C 64 204 84 224 107 224 C 130 224 150 204 150 181 C 150 159 130 139 107 139 Z M 107 203 C 90 203 75 188 75 171 C 75 154 90 139 107 139 C 124 139 139 154 139 171 C 139 188 124 203 107 203 Z M 181 139 C 158 139 143 154 143 171 C 143 188 158 203 181 203 C 204 203 220 188 220 171 C 220 154 204 139 181 139 Z M 181 224 C 204 224 220 204 220 181 C 220 158 204 139 181 139 C 158 139 143 154 143 171 C 143 188 158 203 181 203 C 204 203 220 188 220 171 C 220 154 204 139 181 139 Z" fill="#000000" stroke="none" stroke-width="0" opacity="1.000"/></svg>