<svg xmlns="http://www.w3.org/2000/svg" viewBox="0 0 256 256" width="256" height="256"><path d="M 128 0 C 199 0 255 57 255 128 C 255 199 199 255 128 255 C 57 255 0 199 0 128 C 0 57 57 0 128 0 Z M 128 14 C 63 14 14 63 14 128 C 14 193 63 242 128 242 C 193 242 242 193 242 128 C 242 63 193 14 128 14 Z" fill="#FF8C00" stroke="none" stroke-width="0" opacity="1.000"/><path d="M 128 14 C 63 14 14 63 14 128 C 14 193 63 242 128 242 C 193 242 242 193 242 128 C 242 63 193 14 128 14 Z" fill="#FF8C00" stroke="none" stroke-width="0" opacity="1.000"/><path d="M 128 14 C 63 14 14 63 14 128 C 14 193 63 242 128 242 C 193 242 242 193 242 128 C 242 63 193 14 128 14 Z" fill="#FF8C00" stroke="none" stroke-width="0" opacity="1.000"/></svg>