<svg xmlns="http://www.w3.org/2000/svg" viewBox="0 0 256 256" width="256" height="256"><path d="M 128 0 C 57 0 0 57 0 128 C 0 199 57 255 128 255 C 199 255 255 199 255 128 C 255 57 199 0 128 0 Z M 128 234 C 69 234 22 187 22 128 C 22 69 69 22 128 22 C 187 22 234 69 234 128 C 234 187 187 234 128 234 Z M 128 213 A 85 85 0 0 1 43 128 A 85 85 0 0 1 128 43 A 85 85 0 0 1 213 128 A 85 85 0 0 1 128 213 Z M 128 181 A 53 53 0 1 0 181 128 A 53 53 0 0 0 128 181 Z M 128 160 A 32 32 0 1 1 160 128 A 32 32 0 0 1 128 160 Z M 128 139 A 11 11 0 1 0 139 128 A 11 11 0 0 0 128 139 Z M 128 117 A 21 21 0 1 1 149 96 A 21 21 0 0 1 128 117 Z M 128 96 A 43 43 0 1 0 171 139 A 43 43 0 0 0 128 96 Z M 128 75 A 64 64 0 1 1 192 139 A 64 64 0 0 1 128 75 Z M 128 53 A 85 85 0 1 0 213 139 A 85 85 0 0 0 128 53 Z" fill="#808080" stroke="none" stroke-width="0" opacity="1.000"/></svg>