<svg xmlns="http://www.w3.org/2000/svg" viewBox="0 0 256 256" width="256" height="256"><path d="M 208 32 L 48 32 C 44 32 40 36 40 40 L 40 216 C 40 220 44 224 48 224 L 208 224 C 212 224 216 220 216 216 L 216 40 C 216 36 212 32 208 32 Z M 192 208 L 64 208 L 64 48 L 192 48 L 192 208 Z M 176 160 L 80 160 L 80 144 L 176 144 L 176 160 Z M 176 128 L 80 128 L 80 112 L 176 112 L 176 128 Z M 176 104 L 80 104 L 80 96 L 176 96 L 176 104 Z M 176 80 L 80 80 L 80 64 L 176 64 L 176 80 Z M 176 56 L 80 56 L 80 48 L 176 48 L 176 56 Z" fill="#000000" stroke="none" stroke-width="0" opacity="1.000"/></svg>