<svg xmlns="http://www.w3.org/2000/svg" viewBox="0 0 256 256" width="256" height="256"><path d="M 34 0 L 222 0 C 255 0 255 0 255 34 L 255 222 C 255 255 255 255 222 255 L 34 255 C 0 255 0 255 0 222 L 0 34 C 0 0 0 0 34 0 Z" fill="#808080" stroke="none" stroke-width="0" opacity="1.000"/><path d="M 178 192 A 10 10 0 1 0 198 192 A 10 10 0 1 0 178 192 Z" fill="#FFFFFF" stroke="none" stroke-width="0" opacity="1.000"/><path d="M 178 192 A 10 10 0 1 0 198 192 A 10 10 0 1 0 178 192 Z" fill="#FFFFFF" stroke="none" stroke-width="0" opacity="1.000"/><path d="M 178 192 A 10 10 0 1 0 198 192 A 10 10 0 1 0 178 192 Z" fill="#FFFFFF" stroke="none" stroke-width="0" opacity="1.000"/><path d="M 178 192 A 10 10 0 1 0 198 192 A 10 10 0 1 0 178 192 Z" fill="#FFFFFF" stroke="none" stroke-width="0" opacity="1.000"/><path d="M 178 192 A 10 10 0 1 0 198 192 A 10 10 0 1 0 178 192 Z" fill="#FFFFFF" stroke="none" stroke-width="0" opacity="1.000"/><path d="M 178 192 A 10 10 0 1 0 198 192 A 10 10 0 1 0 178 192 Z" fill="#FFFFFF" stroke="none" stroke-width="0" opacity="1.000"/><path d="M 178 192 A 10 10 0 1 0 198 192 A 10 10 0 1 0 178 192 Z" fill="#FFFFFF" stroke="none" stroke-width="0" opacity="1.000"/><path d="M 178 192 A 10 10 0 1 0 198 192 A 10 10 0 1 0 178 192 Z" fill="#FFFFFF" stroke="none" stroke-width="0" opacity="1.000"/><path d="M 178 192 A 10 10 0 1 0 198 192 A 10 10 0 1 0 178 192 Z" fill="#FFFFFF" stroke="none" stroke-width="0" opacity="1.000"/></svg>