<svg xmlns="http://www.w3.org/2000/svg" viewBox="0 0 256 256" width="256" height="256"><path d="M 197 104 L 181 104 C 177 104 174 101 174 97 L 174 64 C 174 59 177 56 181 56 L 197 56 C 201 56 204 59 204 64 L 204 97 C 204 101 201 104 197 104 Z M 181 64 L 181 97 L 197 97 L 197 64 L 181 64 Z" fill="#FF69B4" stroke="none" stroke-width="0" opacity="1.000"/><path d="M 197 152 L 181 152 C 177 152 174 149 174 145 L 174 112 C 174 108 177 104 181 104 L 197 104 C 201 104 204 108 204 112 L 204 145 C 204 149 201 152 197 152 Z M 181 112 L 181 145 L 197 145 L 197 112 L 181 112 Z" fill="#DC143C" stroke="none" stroke-width="0" opacity="1.000"/><path d="M 197 200 L 181 200 C 177 200 174 197 174 193 L 174 160 C 174 156 177 152 181 152 L 197 152 C 201 152 204 156 204 160 L 204 193 C 204 197 201 200 197 200 Z M 181 160 L 181 193 L 197 193 L 197 160 L 181 160 Z" fill="#DC143C" stroke="none" stroke-width="0" opacity="1.000"/></svg>