<svg xmlns="http://www.w3.org/2000/svg" viewBox="0 0 256 256" width="256" height="256"><path d="M 203 43 L 53 43 C 42 43 32 53 32 64 L 32 192 C 32 203 42 213 53 213 L 203 213 C 214 213 224 203 224 192 L 224 64 C 224 53 214 43 203 43 Z M 203 181 L 53 181 L 53 75 L 203 75 L 203 181 Z M 160 128 L 160 149 L 139 149 L 139 128 L 160 128 Z M 160 107 L 160 128 L 139 128 L 139 107 L 160 107 Z M 160 85 L 160 107 L 139 107 L 139 85 L 160 85 Z M 160 64 L 160 85 L 139 85 L 139 64 L 160 64 Z M 160 43 L 160 64 L 139 64 L 139 43 L 160 43 Z" fill="#000000" stroke="none" stroke-width="0" opacity="1.000"/></svg>