<svg xmlns="http://www.w3.org/2000/svg" viewBox="0 0 256 256" width="256" height="256"><path d="M 197 104 L 181 104 C 178 104 176 102 176 99 C 176 96 178 94 181 94 L 197 94 C 200 94 202 96 202 99 C 202 102 200 104 197 104 Z M 197 132 L 181 132 C 178 132 176 130 176 127 C 176 124 178 122 181 122 L 197 122 C 200 122 202 124 202 127 C 202 130 200 132 197 132 Z M 197 160 L 181 160 C 178 160 176 158 176 155 C 176 152 178 150 181 150 L 197 150 C 200 150 202 152 202 155 C 202 158 200 160 197 160 Z" fill="#000000" stroke="none" stroke-width="0" opacity="1.000"/><path d="M 128 21 A 11 11 0 0 1 139 32 L 139 224 A 11 11 0 1 1 117 224 L 117 32 A 11 11 0 0 1 128 21 Z" fill="#FFD700" stroke="none" stroke-width="0" opacity="1.000"/><path d="M 128 21 A 11 11 0 0 1 139 32 L 139 224 A 11 11 0 1 1 117 224 L 117 32 A 11 11 0 0 1 128 21 Z" fill="#FFD700" stroke="none" stroke-width="0" opacity="1.000"/></svg>