<svg xmlns="http://www.w3.org/2000/svg" viewBox="0 0 256 256" width="256" height="256"><path d="M 32 48 L 96 48 C 107 48 112 53 112 64 L 112 192 C 112 203 107 208 96 208 L 32 208 C 21 208 16 203 16 192 L 16 64 C 16 53 21 48 32 48 Z M 32 192 L 32 64 L 96 64 L 96 192 L 32 192 Z M 160 48 L 224 48 C 235 48 240 53 240 64 L 240 192 C 240 203 235 208 224 208 L 160 208 C 149 208 144 203 144 192 L 144 64 C 144 53 149 48 160 48 Z M 160 192 L 160 64 L 224 64 L 224 192 L 160 192 Z M 32 128 L 96 128 C 107 128 112 133 112 144 L 112 208 C 112 219 107 224 96 224 L 32 224 C 21 224 16 219 16 208 L 16 144 C 16 133 21 128 32 128 Z M 32 208 L 32 144 L 96 144 L 96 208 L 32 208 Z M 160 128 L 224 128 C 235 128 240 133 240 144 L 240 208 C 240 219 235 224 224 224 L 160 224 C 149 224 144 219 144 208 L 144 144 C 144 133 149 128 160 128 Z M 160 208 L 160 144 L 224 144 L 224 208 L 160 208 Z" fill="none" stroke="none" stroke-width="0" opacity="1.000"/></svg>