<svg xmlns="http://www.w3.org/2000/svg" viewBox="0 0 256 256" width="256" height="256"><path d="M 37 48 L 219 48 C 220 48 221 49 221 50 L 221 206 C 221 207 220 208 219 208 L 37 208 C 36 208 35 207 35 206 L 35 50 C 35 49 36 48 37 48 Z M 107 128 L 149 128 C 150 128 151 129 151 130 L 151 130 C 151 131 150 132 149 132 L 107 132 C 106 132 105 131 105 130 L 105 130 C 105 129 106 128 107 128 Z M 107 160 L 149 160 C 150 160 151 161 151 162 L 151 162 C 151 163 150 164 149 164 L 107 164 C 106 164 105 163 105 162 L 105 162 C 105 161 106 160 107 160 Z M 107 192 L 149 192 C 150 192 151 193 151 194 L 151 194 C 151 195 150 196 149 196 L 107 196 C 106 196 105 195 105 194 L 105 194 C 105 193 106 192 107 192 Z" fill="#000000" stroke="none" stroke-width="0" opacity="1.000"/></svg>