<svg xmlns="http://www.w3.org/2000/svg" viewBox="0 0 256 256" width="256" height="256"><path d="M 197 34 L 180 34 C 176 34 173 37 173 41 L 173 101 C 173 105 176 108 180 108 L 197 108 C 201 108 204 105 204 101 L 204 41 C 204 37 201 34 197 34 Z M 197 122 L 180 122 C 176 122 173 125 173 129 L 173 189 C 173 193 176 196 180 196 L 197 196 C 201 196 204 193 204 189 L 204 129 C 204 125 201 122 197 122 Z M 197 214 L 180 214 C 176 214 173 217 173 221 L 173 238 C 173 242 176 245 180 245 L 197 245 C 201 245 204 242 204 238 L 204 221 C 204 217 201 214 197 214 Z M 197 142 L 180 142 C 176 142 173 145 173 149 L 173 199 C 173 203 176 206 180 206 L 197 206 C 201 206 204 203 204 199 L 204 149 C 204 145 201 142 197 142 Z M 197 110 L 180 110 C 176 110 173 113 173 117 L 173 167 C 173 171 176 174 180 174 L 197 174 C 201 174 204 171 204 167 L 204 117 C 204 113 201 110 197 110 Z M 197 88 L 180 88 C 176 88 173 91 173 95 L 173 145 C 173 149 176 152 180 152 L 197 152 C 201 152 204 149 204 145 L 204 95 C 204 91 201 88 197 88 Z" fill="none" stroke="none" stroke-width="0" opacity="1.000"/></svg>