<svg xmlns="http://www.w3.org/2000/svg" viewBox="0 0 256 256" width="256" height="256"><path d="M 208 32 L 48 32 C 37 32 29 40 29 51 L 29 205 C 29 216 37 224 48 224 L 208 224 C 219 224 227 216 227 205 L 227 51 C 227 40 219 32 208 32 Z M 208 205 L 48 205 L 48 51 L 208 51 L 208 205 Z M 128 160 A 11 11 0 1 0 128 181 A 11 11 0 0 0 128 160 Z M 128 128 A 11 11 0 1 0 128 149 A 11 11 0 0 0 128 128 Z M 128 96 A 11 11 0 1 0 128 117 A 11 11 0 0 0 128 96 Z M 128 64 A 11 11 0 1 0 128 85 A 11 11 0 0 0 128 64 Z M 128 32 A 11 11 0 1 0 128 53 A 11 11 0 0 0 128 32 Z M 128 224 A 11 11 0 1 0 128 245 A 11 11 0 0 0 128 224 Z M 128 203 A 11 11 0 1 0 128 224 A 11 11 0 0 0 128 203 Z M 128 171 A 11 11 0 1 0 128 192 A 11 11 0 0 0 128 171 Z M 128 139 A 11 11 0 1 0 128 160 A 11 11 0 0 0 128 139 Z M 128 107 A 11 11 0 1 0 128 128 A 11 11 0 0 0 128 107 Z M 128 75 A 11 11 0 1 0 128 96 A 11 11 0 0 0 128 75 Z M 128 43 A 11 11 0 1 0 128 64 A 11 11 0 0 0 128 43 Z" fill="#FFFFFF" stroke="none" stroke-width="0" opacity="1.000"/></svg>