<svg xmlns="http://www.w3.org/2000/svg" viewBox="0 0 256 256" width="256" height="256"><path d="M 203 43 L 53 43 C 47 43 43 47 43 53 L 43 203 C 43 209 47 213 53 213 L 203 213 C 209 213 213 209 213 203 L 213 53 C 213 47 209 43 203 43 Z M 203 203 L 53 203 L 53 53 L 203 53 L 203 203 Z M 85 107 L 171 107 L 171 128 L 85 128 L 85 107 Z M 85 149 L 171 149 L 171 171 L 85 171 L 85 149 Z M 128 107 L 128 128 L 149 128 L 149 107 L 128 107 Z" fill="#000000" stroke="none" stroke-width="0" opacity="1.000"/></svg>