<svg xmlns="http://www.w3.org/2000/svg" viewBox="0 0 256 256" width="256" height="256"><path d="M 197 80 L 197 43 C 197 21 176 0 154 0 L 102 0 C 80 0 59 21 59 43 L 59 80 L 43 80 C 31 80 21 90 21 102 L 21 213 C 21 225 31 235 43 235 L 213 235 C 225 235 235 225 235 213 L 235 102 C 235 90 225 80 213 80 L 197 80 Z M 102 21 L 154 21 C 165 21 175 29 179 40 L 179 43 L 179 80 L 102 80 L 102 43 C 102 29 112 21 123 21 L 179 21 L 179 43 L 102 43 L 102 21 Z M 213 213 L 43 213 L 43 102 L 213 102 L 213 213 Z" fill="none" stroke="none" stroke-width="0" opacity="1.000"/></svg>