<svg xmlns="http://www.w3.org/2000/svg" viewBox="0 0 256 256" width="256" height="256"><path d="M 32 48 L 224 48 C 230 48 235 53 235 59 L 235 207 C 235 213 230 218 224 218 L 32 218 C 26 218 21 213 21 207 L 21 59 C 21 53 26 48 32 48 Z M 107 133 L 149 133 C 155 133 160 138 160 144 C 160 150 155 155 149 155 L 107 155 C 101 155 96 150 96 144 C 96 138 101 133 107 133 Z M 107 179 L 149 179 C 155 179 160 184 160 190 C 160 196 155 201 149 201 L 107 201 C 101 201 96 196 96 190 C 96 184 101 179 107 179 Z M 107 123 L 149 123 C 155 123 160 128 160 134 C 160 140 155 145 149 145 L 107 145 C 101 145 96 140 96 134 C 96 128 101 123 107 123 Z" fill="#000000" stroke="none" stroke-width="0" opacity="1.000"/></svg>