<svg xmlns="http://www.w3.org/2000/svg" viewBox="0 0 256 256" width="256" height="256"><path d="M 37 48 L 37 208 C 37 219 46 228 57 228 L 199 228 C 210 228 219 219 219 208 L 219 48 C 219 37 210 28 199 28 L 57 28 C 46 28 37 37 37 48 Z M 199 210 L 57 210 C 53 210 50 207 50 203 L 50 43 C 50 39 53 36 57 36 L 199 36 C 203 36 206 39 206 43 L 206 203 C 206 207 203 210 199 210 Z M 102 102 L 102 128 L 128 128 L 128 102 L 102 102 Z M 102 141 L 102 166 L 128 166 L 128 141 L 102 141 Z M 102 180 L 102 205 L 128 205 L 128 180 L 102 180 Z M 141 102 L 141 128 L 166 128 L 166 102 L 141 102 Z M 141 141 L 141 166 L 166 166 L 166 141 L 141 141 Z M 141 180 L 141 205 L 166 205 L 166 180 L 141 180 Z" fill="none" stroke="none" stroke-width="0" opacity="1.000"/></svg>