<svg xmlns="http://www.w3.org/2000/svg" viewBox="0 0 256 256" width="256" height="256"><path d="M 197 40 L 59 40 C 53 40 48 45 48 51 L 48 205 C 48 211 53 216 59 216 L 197 216 C 203 216 208 211 208 205 L 208 51 C 208 45 203 40 197 40 Z M 197 205 L 59 205 L 59 51 L 197 51 L 197 205 Z" fill="#000000" stroke="none" stroke-width="0" opacity="1.000"/><path d="M 128 160 A 11 11 0 0 1 117 149 L 117 51 A 11 11 0 0 1 139 51 L 139 149 A 11 11 0 0 1 128 160 Z" fill="#FF8C00" stroke="none" stroke-width="0" opacity="1.000"/><path d="M 128 192 A 11 11 0 0 1 117 181 L 117 107 A 11 11 0 0 1 139 107 L 139 181 A 11 11 0 0 1 128 192 Z" fill="#FF8C00" stroke="none" stroke-width="0" opacity="1.000"/></svg>