<svg xmlns="http://www.w3.org/2000/svg" viewBox="0 0 256 256" width="256" height="256"><path d="M 184 32 L 72 32 C 60 32 50 42 50 54 L 50 202 C 50 214 60 224 72 224 L 184 224 C 196 224 206 214 206 202 L 206 54 C 206 42 196 32 184 32 Z M 184 202 L 72 202 L 72 54 L 184 54 L 184 202 Z M 184 184 L 72 184 L 72 160 L 184 160 L 184 184 Z M 184 144 L 72 144 L 72 120 L 184 120 L 184 144 Z M 184 104 L 72 104 L 72 80 L 184 80 L 184 104 Z M 184 64 L 72 64 L 72 40 L 184 40 L 184 64 Z M 128 160 L 128 184 L 104 184 L 104 160 L 128 160 Z M 128 120 L 128 144 L 104 144 L 104 120 L 128 120 Z M 128 80 L 128 104 L 104 104 L 104 80 L 128 80 Z M 128 40 L 128 64 L 104 64 L 104 40 L 128 40 Z" fill="#000000" stroke="none" stroke-width="0" opacity="1.000"/></svg>