<svg xmlns="http://www.w3.org/2000/svg" viewBox="0 0 256 256" width="256" height="256"><path d="M 190 138 L 174 122 A 10 10 0 0 0 162 122 L 146 138 L 146 114 A 10 10 0 0 0 126 114 L 126 138 L 110 122 A 10 10 0 0 0 98 122 L 82 138 L 82 114 A 10 10 0 0 0 62 114 L 62 138 A 10 10 0 0 0 62 150 L 126 214 A 10 10 0 0 0 134 214 L 198 150 A 10 10 0 0 0 198 138 L 198 114 A 10 10 0 0 0 190 114 L 190 138 Z M 128 174 A 10 10 0 0 1 118 164 L 118 102 A 10 10 0 0 1 138 102 L 138 164 A 10 10 0 0 1 128 174 Z" fill="#000000" stroke="none" stroke-width="0" opacity="1.000"/></svg>