<svg xmlns="http://www.w3.org/2000/svg" viewBox="0 0 256 256" width="256" height="256"><path d="M 197 34 L 189 34 C 189 34 189 34 189 34 L 189 34 L 189 34 Z" fill="#FFFFFF" stroke="none" stroke-width="0" opacity="1.000"/><path d="M 189 34 L 189 34 C 189 34 189 34 189 34 L 189 34 L 189 34 Z" fill="#228B22" stroke="none" stroke-width="0" opacity="1.000"/><path d="M 189 34 L 189 34 C 189 34 189 34 189 34 L 189 34 L 189 34 Z" fill="#228B22" stroke="none" stroke-width="0" opacity="1.000"/><path d="M 189 34 L 189 34 C 189 34 189 34 189 34 L 189 34 L 189 34 Z" fill="#228B22" stroke="none" stroke-width="0" opacity="1.000"/><path d="M 189 34 L 189 34 C 189 34 189 34 189 34 L 189 34 L 189 34 Z" fill="#228B22" stroke="none" stroke-width="0" opacity="1.000"/><path d="M 189 34 L 189 34 C 189 34 189 34 189 34 L 189 34 L 189 34 Z" fill="#228B22" stroke="none" stroke-width="0" opacity="1.000"/><path d="M 189 34 L 189 34 C 189 34 189 34 189 34 L 189 34 L 189 34 Z" fill="#228B22" stroke="none" stroke-width="0" opacity="1.000"/><path d="M 189 34 L 189 34 C 189 34 189 34 189 34 L 189 34 L 189 34 Z" fill="#228B22" stroke="none" stroke-width="0" opacity="1.000"/><path d="M 189 34 L 189 34 C 189 34 189 34 189 34 L 189 34 L 189 34 Z" fill="#228B22" stroke="none" stroke-width="0" opacity="1.000"/><path d="M 189 34 L 189 34 C 189 34 189 34 189 34 L 189 34 L 189 34 Z" fill="#228B22" stroke="none" stroke-width="0" opacity="1.000"/></svg>