<svg xmlns="http://www.w3.org/2000/svg" viewBox="0 0 256 256" width="256" height="256"><path d="M 107 149 L 107 181 C 107 186 103 190 98 190 C 93 190 89 186 89 181 L 89 149 C 89 144 93 140 98 140 C 103 140 107 144 107 149 Z M 167 149 L 167 181 C 167 186 163 190 158 190 C 153 190 149 186 149 181 L 149 149 C 149 144 153 140 158 140 C 163 140 167 144 167 149 Z" fill="#000000" stroke="none" stroke-width="0" opacity="1.000"/><path d="M 128 16 C 187 16 232 61 232 119 C 232 178 187 223 128 223 C 69 223 24 178 24 119 C 24 61 69 16 128 16 Z M 128 208 C 75 208 32 165 32 119 C 32 73 75 30 128 30 C 181 30 224 73 224 119 C 224 165 181 208 128 208 Z" fill="#1E90FF" stroke="none" stroke-width="0" opacity="1.000"/><path d="M 128 16 C 187 16 232 61 232 119 C 232 178 187 223 128 223 C 69 223 24 178 24 119 C 24 61 69 16 128 16 Z M 128 208 C 75 208 32 165 32 119 C 32 73 75 30 128 30 C 181 30 224 73 224 119 C 224 165 181 208 128 208 Z" fill="#000000" stroke="none" stroke-width="0" opacity="1.000"/></svg>